<?xml version="1.0" standalone="no"?>
<!DOCTYPE svg PUBLIC "-//W3C//DTD SVG 20010904//EN"
 "http://www.w3.org/TR/2001/REC-SVG-20010904/DTD/svg10.dtd">
<svg version="1.0" xmlns="http://www.w3.org/2000/svg"
 width="2728.000000pt" height="2728.000000pt" viewBox="0 0 2728.000000 2728.000000"
 preserveAspectRatio="xMidYMid meet">
<metadata>
Created by potrace 1.11, written by Peter Selinger 2001-2013
</metadata>
<g transform="translate(0.000000,2728.000000) scale(0.100000,-0.100000)"
fill="#000000" stroke="none">
<path d="M4009 18440 c-1 -3 -3 -14 -5 -25 -1 -11 -10 -40 -19 -65 -9 -25 -17
-53 -18 -62 -1 -10 -6 -18 -11 -18 -5 0 -7 -3 -4 -6 5 -5 -10 -63 -29 -114 -4
-8 -7 -17 -8 -20 -5 -22 -39 -131 -48 -155 -7 -16 -12 -32 -13 -35 -2 -14 -29
-104 -56 -184 -16 -50 -31 -99 -33 -108 -2 -9 -8 -25 -14 -36 -6 -11 -8 -22
-5 -24 3 -3 -2 -21 -10 -39 -8 -19 -29 -81 -46 -139 -17 -58 -34 -112 -37
-120 -3 -8 -7 -20 -8 -25 -2 -6 -18 -58 -36 -115 -18 -58 -34 -108 -35 -112
-1 -5 -3 -10 -4 -13 -1 -3 -4 -9 -5 -15 -1 -5 -4 -12 -5 -15 -1 -3 -4 -9 -5
-15 -1 -5 -3 -11 -5 -12 -1 -2 -3 -11 -5 -21 -3 -16 -74 -244 -112 -357 -8
-25 -16 -52 -18 -60 -2 -8 -10 -35 -18 -60 -9 -25 -27 -85 -42 -135 -14 -49
-29 -97 -32 -105 -3 -8 -7 -19 -9 -25 -1 -5 -21 -68 -44 -140 -64 -203 -82
-259 -84 -270 -1 -5 -7 -23 -13 -40 -6 -16 -15 -43 -19 -60 -8 -34 -9 -35 -17
-55 -3 -8 -13 -41 -22 -72 -11 -40 -22 -58 -33 -59 -31 -1 -2442 2 -2730 4
-155 1 -282 -1 -282 -4 0 -4 12 -15 27 -25 16 -10 34 -23 40 -30 7 -7 29 -22
50 -35 21 -13 43 -27 48 -31 9 -8 233 -166 265 -188 69 -47 349 -244 363 -255
9 -8 21 -15 26 -15 5 0 11 -3 13 -7 2 -5 32 -28 68 -53 36 -24 67 -48 68 -52
2 -4 10 -8 18 -8 8 0 14 -4 14 -10 0 -5 5 -10 10 -10 6 0 16 -5 23 -10 7 -6
44 -33 82 -60 39 -27 75 -54 82 -59 6 -6 36 -26 66 -45 30 -19 62 -42 71 -51
9 -9 16 -14 16 -10 0 3 12 -6 27 -20 15 -14 33 -25 39 -25 6 0 17 -6 23 -14
10 -12 123 -93 170 -121 9 -5 18 -12 21 -15 3 -3 73 -52 155 -110 83 -57 160
-112 172 -123 28 -25 83 -25 130 1 12 7 26 11 30 11 4 -1 15 1 23 4 33 14 106
38 129 43 13 3 37 12 52 20 16 8 30 14 31 14 3 -1 25 5 53 16 11 4 25 8 30 10
6 1 55 21 110 44 55 22 100 41 100 41 0 0 10 2 23 5 12 4 22 10 22 13 0 4 6 8
14 8 8 0 29 7 47 15 19 9 60 28 92 42 142 64 176 80 276 128 58 29 108 55 111
58 3 3 30 18 60 34 65 32 90 47 189 106 41 25 86 52 100 60 55 33 146 95 149
103 2 4 9 7 16 7 7 0 21 8 32 18 10 10 40 32 65 50 119 81 289 230 454 396
159 161 222 228 380 404 22 24 52 58 68 75 15 16 27 33 27 36 0 4 -12 42 -26
86 -14 44 -27 87 -29 95 -2 8 -9 29 -16 45 -6 17 -13 36 -15 43 -1 8 -6 21
-10 30 -4 9 -8 22 -8 27 -1 9 -68 221 -84 265 -3 8 -6 20 -8 25 -1 6 -9 29
-18 53 -8 23 -16 46 -17 50 -2 10 -6 21 -20 67 -7 22 -14 43 -15 48 -1 4 -3 9
-4 12 -1 3 -3 8 -5 13 -1 4 -4 14 -8 22 -3 8 -29 89 -57 180 -28 91 -54 172
-57 180 -4 8 -7 17 -8 20 -1 3 -8 25 -15 50 -7 25 -14 47 -15 50 -3 8 -16 44
-26 68 -5 13 -9 32 -9 42 0 11 -5 20 -12 20 -6 0 -9 3 -5 6 3 3 -1 27 -9 52
-8 26 -16 52 -18 57 -2 6 -6 17 -9 25 -19 50 -90 278 -91 293 0 9 -3 17 -7 17
-4 0 -10 12 -13 28 -8 30 -54 179 -63 202 -3 8 -8 24 -10 35 -1 11 -7 29 -12
40 -5 11 -29 81 -52 155 -37 119 -56 165 -60 150z"/>
<path d="M8898 18404 c-3 -2 -25 -6 -49 -7 -52 -4 -86 -23 -93 -52 -3 -11 -6
-1659 -6 -3663 0 -2751 3 -3649 12 -3665 14 -27 34 -43 71 -56 19 -7 26 -7 21
0 -4 8 0 8 12 2 11 -5 37 -8 59 -6 22 2 45 3 50 3 6 0 28 0 50 0 58 -1 50 0
295 -4 124 -1 230 1 237 6 6 5 14 5 17 0 2 -4 20 -7 38 -5 18 2 40 4 48 3 8 0
41 -1 73 -2 65 -2 53 -10 172 123 26 29 195 235 217 264 5 6 21 25 37 44 16
18 33 38 37 45 14 17 87 108 106 131 95 116 198 246 198 250 0 3 8 13 18 23 9
10 31 35 47 56 55 71 80 101 88 104 4 2 7 10 7 17 0 7 7 16 16 19 9 4 14 9 11
12 -3 3 7 19 23 34 16 15 26 31 23 34 -4 3 -2 6 4 6 5 0 23 19 40 43 17 23 41
52 52 65 12 12 19 22 16 22 -3 0 3 8 13 18 9 10 28 33 42 51 14 19 32 41 40
51 8 10 26 32 40 50 14 19 61 79 105 134 45 56 92 117 105 136 13 19 29 40 36
45 6 6 40 48 75 95 35 47 67 87 70 90 21 18 173 220 181 240 6 15 10 312 10
763 0 681 1 737 16 737 9 1 277 2 595 3 l578 2 57 61 c90 96 182 200 266 297
22 27 50 59 61 71 11 12 38 44 60 70 22 26 51 59 65 74 14 15 43 49 65 77 22
27 47 57 55 65 21 22 79 90 115 135 17 20 37 45 46 54 8 9 39 45 69 81 29 36
57 68 62 71 18 12 18 57 0 79 l-18 23 -1046 0 c-1010 0 -1047 1 -1051 18 -3
11 -1 21 4 24 4 3 5 16 1 28 -4 12 -6 60 -5 107 2 47 3 99 2 115 -5 116 -3
223 3 237 5 9 5 19 1 21 -6 4 -7 172 -2 252 0 6 -1 25 -4 43 -2 18 0 35 4 38
5 3 7 9 5 13 -3 4 67 7 154 7 100 0 157 -3 153 -9 -4 -6 -1 -7 8 -1 8 5 531 9
1248 10 l1234 1 41 39 c39 38 137 144 242 264 27 30 61 68 77 83 15 16 27 31
27 34 0 5 23 31 80 91 14 15 45 52 70 81 25 30 54 64 65 76 11 12 38 43 60 69
38 46 48 58 98 116 12 14 45 52 72 85 28 33 57 67 65 76 8 9 33 37 55 63 22
26 49 57 60 70 11 12 36 42 55 65 19 24 47 56 63 72 15 17 27 32 27 34 0 3 8
13 18 23 9 10 33 38 54 63 20 24 46 55 58 69 47 53 70 88 70 104 0 50 -51 107
-85 97 -23 -7 -127 -6 -132 1 -2 5 -9 5 -15 2 -14 -9 -238 -11 -238 -3 0 4
-15 4 -33 -1 -18 -4 -43 -3 -55 1 -12 5 -22 5 -22 1 0 -9 -47 -8 -56 0 -3 4
-18 3 -32 -2 -15 -4 -37 -3 -50 1 -12 5 -22 5 -22 1 0 -4 -11 -7 -25 -7 -14 0
-25 3 -25 6 0 4 -15 4 -33 -1 -18 -4 -43 -3 -55 1 -12 5 -22 5 -22 1 0 -9 -47
-8 -56 0 -3 4 -18 3 -32 -2 -15 -4 -37 -3 -50 1 -12 5 -22 5 -22 1 0 -4 -11
-7 -25 -7 -14 0 -25 3 -25 6 0 4 -15 4 -33 -1 -18 -4 -43 -3 -55 1 -12 5 -22
5 -22 1 0 -9 -47 -8 -56 0 -3 4 -18 3 -32 -2 -15 -4 -37 -3 -50 1 -12 5 -22 5
-22 1 0 -4 -11 -7 -25 -7 -14 0 -25 3 -25 6 0 4 -15 4 -33 -1 -18 -4 -43 -3
-55 1 -12 5 -22 5 -22 1 0 -9 -47 -8 -56 1 -3 3 -16 2 -28 -3 -13 -4 -29 -4
-39 1 -11 7 -17 6 -17 0 0 -7 -8 -7 -23 -2 -13 5 -30 5 -39 0 -10 -6 -19 -6
-23 0 -4 7 -15 7 -31 1 -17 -7 -23 -7 -19 0 4 7 -3 7 -19 0 -17 -6 -26 -6 -26
1 0 6 -6 6 -18 0 -11 -6 -24 -6 -35 0 -9 6 -17 6 -17 1 0 -10 -36 -9 -46 1 -4
3 -15 2 -25 -3 -11 -7 -20 -7 -24 0 -4 6 -15 6 -31 0 -17 -7 -23 -7 -19 0 4 7
-3 7 -20 0 -18 -7 -33 -7 -46 0 -13 7 -19 7 -19 1 0 -7 -8 -7 -23 -2 -13 5
-30 5 -39 0 -10 -6 -19 -6 -23 0 -4 7 -15 7 -31 1 -17 -7 -23 -7 -19 0 4 7 -3
7 -19 0 -17 -6 -26 -6 -26 1 0 6 -6 6 -18 0 -11 -6 -24 -6 -35 0 -9 6 -17 6
-17 1 0 -10 -36 -9 -46 1 -4 3 -15 2 -25 -3 -11 -7 -20 -7 -24 0 -4 6 -15 6
-31 0 -17 -7 -23 -7 -19 0 4 7 -3 7 -20 0 -18 -7 -33 -7 -46 0 -13 7 -19 7
-19 1 0 -7 -8 -7 -23 -2 -13 5 -30 5 -39 0 -10 -6 -19 -6 -23 0 -4 7 -15 7
-31 1 -17 -7 -23 -7 -19 0 4 7 -3 7 -19 0 -17 -6 -26 -6 -26 1 0 6 -6 6 -18 0
-11 -6 -24 -6 -35 0 -9 6 -17 6 -17 1 0 -10 -36 -9 -46 1 -4 3 -15 2 -25 -3
-11 -7 -20 -7 -24 0 -4 6 -15 6 -31 0 -17 -7 -23 -7 -19 0 4 7 -3 7 -20 0 -18
-7 -33 -7 -46 0 -13 7 -19 7 -19 1 0 -7 -8 -7 -23 -2 -13 5 -30 5 -39 0 -10
-6 -19 -6 -23 0 -4 7 -15 7 -31 1 -17 -7 -23 -7 -19 0 4 7 -3 7 -19 0 -17 -6
-26 -6 -26 1 0 6 -6 6 -18 0 -11 -6 -24 -6 -35 0 -9 6 -17 6 -17 1 0 -10 -36
-9 -46 1 -4 3 -15 2 -25 -3 -11 -7 -20 -7 -24 0 -4 6 -15 6 -31 0 -17 -7 -23
-7 -19 0 4 7 -3 7 -20 0 -18 -7 -33 -7 -46 0 -13 7 -19 7 -19 1 0 -7 -8 -7
-23 -2 -13 5 -30 5 -39 0 -10 -6 -19 -6 -23 0 -4 7 -15 7 -31 1 -17 -7 -23 -7
-19 0 4 7 -3 7 -19 0 -17 -6 -26 -6 -26 1 0 6 -6 6 -18 0 -11 -6 -24 -6 -35 0
-9 6 -17 6 -17 1 0 -10 -36 -9 -46 1 -4 3 -15 2 -25 -3 -11 -7 -20 -7 -24 0
-4 6 -15 6 -31 0 -17 -7 -23 -7 -19 0 4 7 -3 7 -20 0 -18 -7 -33 -7 -46 0 -13
7 -19 7 -19 1 0 -7 -8 -7 -23 -2 -13 5 -30 5 -39 0 -10 -6 -19 -6 -23 0 -3 6
-15 7 -28 2 -12 -5 -32 -5 -44 0 -13 5 -23 5 -23 1 0 -4 -11 -7 -25 -7 -14 0
-25 3 -25 6 0 4 -15 4 -33 -1 -18 -4 -43 -3 -55 1 -12 5 -22 5 -22 1 0 -9 -47
-8 -56 0 -3 4 -18 3 -32 -2 -15 -4 -37 -3 -50 1 -12 5 -22 5 -22 1 0 -4 -11
-7 -25 -7 -14 0 -25 3 -25 6 0 4 -15 4 -33 -1 -18 -4 -43 -3 -55 1 -12 5 -22
5 -22 1 0 -9 -47 -8 -56 0 -3 4 -18 3 -32 -2 -15 -4 -37 -3 -50 1 -12 5 -22 5
-22 1 0 -4 -11 -7 -25 -7 -14 0 -25 3 -25 6 0 4 -15 4 -33 -1 -18 -4 -43 -3
-55 1 -12 5 -22 5 -22 1 0 -9 -47 -8 -56 0 -3 4 -18 3 -32 -2 -15 -4 -37 -3
-50 1 -12 5 -22 5 -22 1 0 -4 -11 -7 -25 -7 -14 0 -25 3 -25 6 0 4 -15 4 -33
-1 -18 -4 -43 -3 -55 1 -12 5 -22 5 -22 1 0 -9 -47 -8 -56 1 -3 3 -16 2 -28
-3 -13 -4 -29 -4 -39 1 -11 7 -17 6 -17 0 0 -7 -8 -7 -23 -2 -13 5 -30 5 -39
0 -10 -6 -19 -6 -23 0 -4 7 -15 7 -31 1 -17 -7 -23 -7 -19 0 4 7 -3 7 -19 0
-17 -6 -26 -6 -26 1 0 6 -6 6 -18 0 -11 -6 -24 -6 -35 0 -9 6 -17 6 -17 1 0
-10 -36 -9 -46 1 -4 3 -15 2 -25 -3 -11 -7 -20 -7 -24 0 -4 6 -15 6 -31 0 -17
-7 -23 -7 -19 0 4 7 -3 7 -20 0 -18 -7 -33 -7 -46 0 -13 7 -19 7 -19 1 0 -7
-8 -7 -23 -2 -13 5 -30 5 -39 0 -10 -6 -19 -6 -23 0 -4 7 -15 7 -31 1 -17 -7
-23 -7 -19 0 4 7 -3 7 -19 0 -17 -6 -26 -6 -26 1 0 6 -6 6 -18 0 -11 -6 -24
-6 -35 0 -9 6 -17 6 -17 1 0 -10 -36 -9 -46 1 -4 3 -15 2 -25 -3 -11 -7 -20
-7 -24 0 -4 6 -15 6 -31 0 -17 -7 -23 -7 -19 0 4 7 -3 7 -20 0 -18 -7 -33 -7
-46 0 -13 7 -19 7 -19 1 0 -7 -8 -7 -23 -2 -13 5 -29 6 -35 2 -6 -3 -28 -5
-49 -3 -21 1 -42 3 -48 2 -5 0 -39 -1 -75 -3 -36 -1 -75 1 -86 5 -12 4 -24 5
-26 2z"/>
<path d="M16241 18405 c-1 -6 -27 -9 -61 -8 -107 2 -132 -12 -222 -128 -87
-112 -201 -259 -225 -288 -16 -19 -35 -43 -43 -53 -8 -11 -39 -50 -67 -86 -29
-37 -56 -71 -61 -77 -4 -5 -34 -45 -67 -87 -33 -43 -63 -78 -67 -78 -4 0 -8
-5 -8 -11 0 -11 -79 -111 -92 -117 -5 -2 -8 -10 -8 -17 0 -7 -4 -15 -8 -17 -5
-1 -33 -35 -63 -73 -30 -39 -60 -77 -66 -85 -7 -8 -29 -35 -48 -60 -19 -25
-43 -54 -52 -65 -10 -11 -26 -32 -35 -46 -9 -14 -23 -32 -30 -40 -8 -8 -33
-40 -57 -71 -24 -32 -47 -58 -52 -58 -5 0 -8 -4 -7 -8 3 -8 -25 -45 -80 -111
-10 -10 -24 -29 -32 -42 -8 -12 -23 -31 -32 -41 -10 -10 -18 -20 -18 -23 0 -3
-9 -16 -20 -28 -11 -12 -41 -49 -67 -82 -26 -33 -50 -62 -53 -65 -3 -3 -17
-21 -30 -40 -33 -47 -52 -70 -72 -89 -10 -8 -18 -21 -18 -27 0 -7 -4 -14 -8
-16 -5 -1 -33 -34 -63 -73 -29 -38 -58 -75 -64 -82 -5 -6 -20 -24 -31 -40 -12
-15 -66 -84 -120 -153 -54 -69 -102 -129 -106 -135 -4 -5 -19 -23 -33 -39 -14
-16 -25 -32 -25 -35 0 -3 -15 -23 -33 -43 -17 -20 -45 -55 -61 -77 -17 -23
-33 -41 -38 -41 -4 0 -8 -5 -8 -11 0 -6 -19 -34 -42 -62 -24 -28 -46 -56 -50
-62 -5 -5 -23 -28 -40 -51 -51 -64 -85 -107 -105 -132 -23 -31 -80 -102 -99
-125 -8 -9 -14 -20 -14 -24 0 -3 -6 -11 -13 -17 -8 -6 -45 -51 -83 -101 -38
-49 -71 -92 -74 -95 -3 -3 -28 -34 -55 -70 -60 -77 -77 -99 -90 -114 -5 -6
-23 -29 -39 -51 -17 -22 -33 -42 -36 -45 -3 -3 -19 -23 -36 -45 -31 -43 -62
-80 -81 -101 -7 -7 -13 -17 -13 -23 0 -6 -3 -11 -7 -11 -5 0 -19 -17 -33 -37
-14 -21 -32 -44 -40 -53 -8 -9 -27 -31 -42 -50 -15 -19 -55 -71 -90 -116 -35
-44 -75 -96 -90 -115 -15 -19 -64 -81 -109 -139 -46 -58 -87 -106 -91 -108 -4
-2 -8 -8 -8 -13 0 -10 -10 -23 -41 -57 -8 -9 -39 -48 -69 -87 -30 -38 -59 -73
-65 -77 -5 -4 -7 -8 -3 -8 4 0 -9 -17 -27 -37 -19 -21 -35 -41 -35 -45 0 -4
-11 -18 -25 -32 -14 -14 -25 -29 -25 -35 0 -5 -4 -11 -8 -13 -4 -2 -23 -23
-42 -48 -19 -24 -39 -49 -45 -55 -5 -7 -20 -25 -33 -41 -44 -57 -147 -191
-177 -229 -16 -21 -38 -47 -47 -57 -10 -10 -18 -20 -18 -23 0 -4 -48 -65 -195
-250 -13 -16 -53 -68 -90 -115 -37 -47 -75 -95 -86 -108 -10 -12 -19 -24 -19
-26 0 -2 -9 -15 -20 -28 -17 -20 -110 -136 -185 -233 -13 -16 -59 -75 -102
-130 -44 -55 -112 -143 -153 -195 -41 -52 -79 -100 -84 -107 -17 -19 -27 -33
-81 -103 -27 -36 -57 -74 -66 -85 -10 -11 -56 -69 -103 -130 -47 -60 -98 -125
-113 -144 -16 -18 -32 -41 -37 -50 -5 -9 -14 -21 -20 -27 -6 -6 -24 -28 -41
-49 -16 -21 -49 -61 -72 -90 -43 -54 -68 -122 -58 -156 4 -10 19 -26 35 -34
37 -19 110 -27 110 -11 0 7 3 7 8 1 8 -12 171 -13 190 -1 7 4 12 3 12 -1 0
-13 2083 -12 2092 1 5 8 8 8 8 1 0 -12 118 -14 137 -2 6 4 14 3 17 -1 3 -5 22
-8 43 -6 30 2 45 11 83 52 25 27 57 65 72 83 14 19 38 48 53 64 14 17 38 46
53 65 25 32 62 76 87 104 6 6 26 31 45 56 19 25 37 47 40 50 3 3 35 41 70 85
35 44 67 82 70 85 3 3 23 28 45 55 22 28 44 55 50 61 5 6 24 28 40 50 17 21
53 66 80 99 28 34 64 79 80 99 17 21 38 48 48 60 10 11 35 42 55 68 20 27 40
48 44 48 4 0 8 5 8 11 0 6 6 16 13 23 7 8 29 33 48 56 18 23 48 59 64 79 17
21 39 50 50 65 11 15 31 40 45 55 14 15 32 36 40 47 34 44 206 260 221 279 70
84 226 276 247 304 15 19 50 62 77 96 28 34 64 79 80 100 17 22 40 49 51 61
12 13 19 25 16 28 -3 3 0 6 6 6 6 0 14 9 17 20 4 11 11 18 16 15 5 -4 9 0 9 9
0 8 3 16 8 18 4 2 52 59 106 128 55 69 106 132 113 140 8 8 36 44 64 78 27 35
55 70 62 77 6 7 19 22 27 35 8 12 24 32 35 44 11 12 30 36 42 52 40 53 58 74
95 117 21 23 38 45 38 48 0 3 9 17 21 30 11 13 33 39 47 58 15 18 36 44 47 57
12 13 81 100 155 193 74 93 137 165 140 160 8 -11 5 -52 -4 -67 -4 -7 -3 -12
1 -12 10 0 10 -61 -1 -78 -4 -7 -3 -12 1 -12 5 0 8 -19 6 -42 -2 -24 -3 -49
-3 -55 0 -7 0 -26 0 -43 0 -16 0 -36 0 -42 0 -7 1 -32 3 -55 2 -24 -1 -43 -6
-43 -6 0 -6 -5 -1 -12 11 -16 11 -68 1 -85 -5 -7 -5 -13 0 -13 4 0 8 -29 8
-65 0 -36 -4 -65 -8 -65 -5 0 -5 -5 -1 -12 10 -16 11 -149 1 -155 -4 -2 -4 -9
0 -16 10 -16 10 -58 1 -63 -5 -3 -6 -9 -3 -14 10 -16 12 -70 4 -76 -5 -3 -7
-10 -4 -15 4 -5 1 -9 -4 -9 -6 0 -11 -6 -11 -14 0 -8 -3 -16 -8 -18 -4 -1 -36
-39 -72 -83 -35 -44 -69 -85 -75 -91 -5 -7 -19 -25 -30 -40 -11 -16 -30 -39
-42 -52 -13 -13 -23 -26 -23 -30 0 -4 -16 -24 -35 -45 -19 -21 -35 -42 -35
-47 0 -4 -3 -10 -8 -12 -4 -2 -25 -25 -47 -53 -22 -27 -44 -55 -50 -62 -5 -7
-15 -18 -20 -25 -47 -59 -91 -114 -95 -118 -3 -3 -21 -25 -40 -50 -19 -25 -40
-52 -47 -60 -7 -8 -36 -44 -64 -80 -28 -36 -55 -66 -60 -68 -5 -2 -9 -8 -9
-14 0 -9 -23 -39 -79 -103 -10 -11 -42 -51 -71 -90 -65 -84 -71 -91 -91 -113
-8 -9 -39 -48 -68 -86 -50 -64 -63 -80 -102 -126 -8 -10 -24 -31 -35 -46 -10
-14 -26 -34 -35 -43 -8 -9 -31 -36 -49 -61 -19 -25 -45 -56 -57 -70 -13 -14
-23 -28 -23 -31 0 -3 -10 -17 -22 -31 -13 -13 -35 -40 -50 -59 -48 -61 -83
-105 -95 -119 -7 -8 -28 -34 -45 -56 -18 -23 -45 -57 -60 -75 -14 -19 -67 -86
-117 -149 -50 -63 -99 -124 -109 -135 -57 -64 -114 -181 -105 -216 3 -11 19
-27 35 -35 33 -17 145 -26 154 -12 3 4 11 5 17 1 17 -10 137 -11 144 0 2 4 10
4 16 -1 9 -6 1933 -9 2042 -3 6 1 34 0 63 -2 28 -1 52 1 52 6 0 4 6 5 13 0 6
-4 43 -7 80 -8 67 0 69 1 105 40 21 22 57 65 82 95 25 30 53 64 64 75 10 11
30 36 44 55 15 19 29 37 32 40 3 3 32 37 63 75 32 39 66 79 76 90 9 11 37 46
61 78 25 31 48 57 53 57 4 0 5 5 2 10 -3 6 -2 10 2 10 5 0 26 23 48 51 22 28
48 60 58 71 9 12 17 26 17 31 0 6 3 7 7 4 3 -4 13 4 22 17 14 21 119 152 146
183 5 6 21 26 35 44 14 18 30 37 36 43 6 6 27 33 47 59 20 26 42 54 49 62 7 8
18 20 23 27 6 7 75 94 155 193 80 99 150 187 157 195 19 24 83 103 101 125 10
11 35 43 57 70 22 28 43 51 47 53 5 2 8 8 8 13 0 6 10 21 23 34 12 13 27 30
32 37 20 26 90 113 100 124 5 7 21 26 35 44 26 33 79 100 108 135 10 11 44 54
77 95 32 41 64 80 70 87 5 7 15 18 20 25 39 50 132 167 146 183 15 16 194 241
307 384 15 18 35 41 45 50 9 8 17 21 17 28 0 7 4 13 8 13 5 0 21 18 38 40 16
22 38 51 49 64 11 13 31 38 45 56 14 18 30 37 36 44 6 6 27 34 48 61 21 28 41
52 45 55 4 3 28 33 54 67 26 34 53 68 60 75 6 7 34 42 62 78 27 36 52 67 55
70 4 3 41 49 84 103 42 53 78 97 79 97 1 0 2 -167 2 -371 0 -204 2 -372 5
-373 3 -1 28 22 56 51 28 29 49 53 48 53 -2 0 9 13 24 29 15 16 54 59 87 97
33 37 76 86 96 108 l37 40 0 -174 c0 -96 1 -183 1 -193 1 -21 84 58 162 155
26 31 49 54 53 51 3 -4 6 -1 6 5 0 7 8 20 18 30 9 10 35 39 57 65 22 26 51 60
65 75 14 15 48 54 75 87 48 57 109 128 130 151 6 6 26 31 47 55 49 60 75 90
96 114 10 11 40 47 67 80 28 33 59 69 70 80 11 11 32 37 47 57 15 20 33 42 40
50 16 16 227 265 248 292 8 11 25 30 37 42 12 13 27 32 35 42 7 10 32 41 55
68 23 27 81 96 129 154 48 58 90 107 93 110 3 3 26 30 51 60 24 30 48 57 52
58 5 2 8 8 8 13 0 6 10 20 23 33 12 13 36 40 52 60 17 21 38 47 49 59 10 12
44 54 74 92 31 39 58 72 62 75 3 3 25 30 50 60 24 30 51 63 60 72 18 20 16 17
115 143 43 55 87 107 97 116 10 9 18 20 18 23 0 4 6 13 13 20 7 8 56 68 108
136 l94 122 1 636 c1 546 -1 641 -13 663 -30 51 -43 54 -266 55 -114 1 -210 4
-213 7 -4 3 -17 2 -30 -3 -13 -5 -26 -6 -29 0 -3 5 -18 5 -33 1 -15 -5 -37 -4
-50 0 -12 5 -22 5 -22 1 0 -4 -11 -7 -25 -7 -14 0 -25 3 -25 6 0 4 -15 4 -33
-1 -18 -4 -43 -3 -55 1 -12 5 -22 5 -22 1 0 -9 -47 -8 -56 1 -3 3 -16 2 -28
-3 -13 -4 -29 -4 -39 1 -11 7 -17 6 -17 0 0 -7 -8 -7 -23 -2 -13 5 -30 5 -39
0 -10 -6 -19 -6 -23 0 -4 7 -15 7 -31 1 -17 -7 -23 -7 -19 0 4 7 -3 7 -19 0
-17 -6 -26 -6 -26 1 0 6 -6 6 -18 0 -11 -6 -24 -6 -35 0 -9 6 -17 6 -17 1 0
-10 -36 -9 -46 1 -4 3 -15 2 -25 -3 -11 -7 -20 -7 -24 0 -4 6 -15 6 -31 0 -17
-7 -23 -7 -19 0 4 7 -3 7 -20 0 -18 -7 -33 -7 -46 0 -13 7 -19 7 -19 1 0 -7
-8 -7 -23 -2 -13 5 -30 5 -39 0 -10 -6 -19 -6 -23 0 -4 7 -15 7 -31 1 -17 -7
-23 -7 -19 0 4 7 -3 7 -19 0 -17 -6 -26 -6 -26 1 0 6 -6 6 -18 0 -11 -6 -24
-6 -35 0 -9 6 -17 6 -17 1 0 -10 -36 -9 -46 1 -4 3 -15 2 -25 -3 -11 -7 -20
-7 -24 0 -4 6 -15 6 -31 0 -17 -7 -23 -7 -19 0 4 7 -3 7 -20 0 -18 -7 -33 -7
-46 0 -13 7 -19 7 -19 1 0 -7 -8 -7 -23 -2 -13 5 -30 5 -39 0 -10 -6 -19 -6
-23 0 -4 7 -15 7 -31 1 -17 -7 -23 -7 -19 0 4 7 -3 7 -19 0 -17 -6 -26 -6 -26
1 0 6 -6 6 -18 0 -11 -6 -24 -6 -35 0 -9 6 -17 6 -17 1 0 -10 -36 -9 -46 1 -4
3 -15 2 -25 -3 -11 -7 -20 -7 -24 0 -4 6 -15 6 -31 0 -17 -7 -23 -7 -19 0 4 7
-3 7 -20 0 -18 -7 -33 -7 -46 0 -13 7 -19 7 -19 1 0 -7 -8 -7 -24 -1 -13 5
-26 6 -30 3 -3 -3 -47 -5 -98 -4 -152 1 -155 1 -191 1 -16 0 -34 -1 -40 -3
-12 -2 -87 -76 -117 -115 -17 -22 -90 -110 -105 -126 -6 -6 -30 -36 -55 -66
-49 -60 -52 -63 -137 -166 -32 -38 -71 -87 -88 -108 -16 -21 -38 -48 -48 -60
-10 -11 -28 -34 -40 -49 -12 -16 -37 -44 -54 -63 -18 -19 -30 -34 -27 -34 3 0
-1 -7 -9 -15 -9 -8 -17 -20 -20 -27 -15 -43 -20 43 -21 380 l-1 379 -33 34
-33 34 -214 1 c-117 1 -218 5 -224 8 -6 4 -11 3 -11 -1 0 -10 -46 -10 -56 -1
-3 4 -18 3 -32 -2 -15 -4 -37 -3 -50 1 -12 5 -22 5 -22 1 0 -4 -11 -7 -25 -7
-14 0 -25 3 -25 6 0 4 -15 4 -33 -1 -18 -4 -43 -3 -55 1 -12 5 -22 5 -22 1 0
-9 -47 -8 -56 0 -3 4 -18 3 -32 -2 -15 -4 -37 -3 -50 1 -12 5 -22 5 -22 1 0
-4 -11 -7 -25 -7 -14 0 -25 3 -25 6 0 4 -15 4 -33 -1 -18 -4 -43 -3 -55 1 -12
5 -22 5 -22 1 0 -4 -12 -7 -27 -6 -16 1 -28 3 -28 4 0 6 -68 4 -71 -2 -3 -4
-16 -3 -30 2 -17 7 -23 7 -19 0 8 -13 -1 -13 -26 0 -10 6 -19 7 -19 3 0 -10
-47 -10 -56 0 -4 3 -15 2 -25 -3 -11 -7 -20 -7 -24 0 -4 6 -15 6 -31 0 -17 -7
-23 -7 -19 0 4 7 -3 7 -20 0 -18 -7 -33 -7 -46 0 -13 7 -19 7 -19 1 0 -7 -8
-7 -23 -2 -13 5 -30 5 -39 0 -10 -6 -19 -6 -23 0 -4 7 -15 7 -31 1 -17 -7 -23
-7 -19 0 4 7 -3 7 -19 0 -17 -6 -26 -6 -26 1 0 6 -6 6 -18 0 -11 -6 -24 -6
-35 0 -9 6 -17 6 -17 1 0 -10 -36 -9 -46 1 -4 3 -15 2 -25 -3 -11 -7 -20 -7
-24 0 -4 6 -15 6 -31 0 -17 -7 -23 -7 -19 0 4 7 -3 7 -20 0 -18 -7 -33 -7 -46
0 -13 7 -19 7 -19 1 0 -7 -8 -7 -23 -2 -13 5 -30 5 -39 0 -10 -6 -19 -6 -23 0
-4 7 -15 7 -31 1 -17 -7 -23 -7 -19 0 4 7 -3 7 -19 0 -17 -6 -26 -6 -26 1 0 6
-6 6 -18 0 -11 -6 -24 -6 -35 0 -9 6 -17 6 -17 1 0 -10 -36 -9 -46 1 -4 3 -15
2 -25 -3 -11 -7 -20 -7 -24 0 -4 6 -15 6 -31 0 -17 -7 -23 -7 -19 0 4 7 -2 7
-19 0 -17 -6 -27 -6 -32 1 -4 7 -10 7 -18 0 -7 -6 -17 -6 -26 -1 -9 6 -17 5
-21 -2 -4 -7 -13 -7 -28 1 -11 7 -21 8 -21 4 0 -4 -11 -8 -25 -8 -14 0 -25 4
-25 8 0 5 -5 5 -11 1 -18 -11 -209 -10 -213 1 -3 7 -5 7 -5 0z"/>
<path d="M24446 18403 c-3 -3 -63 -7 -133 -8 -71 -1 -134 -3 -142 -4 -14 -1
-121 -109 -121 -122 0 -4 -7 -15 -17 -24 -9 -9 -43 -51 -75 -93 -32 -43 -71
-93 -87 -112 -16 -19 -30 -38 -31 -42 0 -4 -15 -23 -33 -42 -18 -19 -45 -52
-61 -75 -17 -23 -34 -41 -39 -41 -4 0 -5 -5 -2 -10 3 -6 -1 -13 -9 -16 -9 -3
-16 -12 -16 -19 0 -7 -4 -15 -9 -17 -5 -1 -44 -48 -87 -103 -43 -55 -82 -104
-86 -110 -30 -37 -187 -238 -202 -260 -11 -14 -28 -36 -39 -48 -10 -12 -28
-35 -40 -50 -12 -16 -27 -35 -34 -42 -7 -7 -9 -15 -6 -19 4 -3 2 -6 -4 -6 -6
0 -30 -26 -54 -57 -24 -32 -48 -63 -54 -70 -13 -16 -18 -22 -100 -128 -38 -49
-72 -92 -75 -95 -3 -3 -35 -43 -70 -90 -36 -47 -67 -87 -70 -90 -3 -3 -46 -57
-95 -120 -49 -63 -92 -117 -95 -120 -3 -3 -27 -34 -55 -70 -59 -77 -60 -78
-86 -110 -11 -14 -30 -38 -42 -53 -12 -16 -35 -46 -52 -67 -16 -20 -66 -84
-110 -140 -44 -56 -87 -111 -95 -121 -8 -10 -25 -31 -36 -46 -102 -132 -188
-239 -195 -241 -5 -2 -9 -10 -9 -18 0 -8 -4 -14 -10 -14 -5 0 -10 -5 -10 -11
0 -7 -11 -22 -25 -35 -14 -13 -25 -26 -25 -30 0 -3 -12 -21 -27 -38 -16 -17
-41 -49 -58 -71 -16 -21 -38 -47 -47 -57 -10 -10 -16 -18 -13 -18 4 0 -14 -23
-50 -64 -5 -6 -32 -40 -60 -76 -27 -36 -83 -108 -125 -160 -41 -53 -87 -111
-102 -130 -37 -49 -109 -140 -127 -164 -9 -11 -26 -30 -38 -43 -12 -13 -20
-23 -17 -23 3 0 -1 -7 -8 -15 -15 -17 -21 -24 -68 -85 -18 -25 -41 -53 -49
-62 -28 -30 -41 -47 -41 -53 0 -5 -38 -50 -67 -81 -7 -7 -13 -17 -13 -23 0 -5
-8 -15 -17 -20 -10 -6 -15 -11 -11 -11 4 0 -3 -10 -15 -23 -28 -30 -52 -60
-55 -70 -2 -7 -41 -53 -69 -83 -7 -7 -13 -17 -13 -22 0 -6 -3 -12 -7 -14 -9
-3 -46 -48 -78 -92 -11 -15 -28 -37 -39 -49 -20 -24 -130 -164 -161 -206 -19
-26 -118 -152 -140 -178 -13 -16 -23 -28 -65 -83 -19 -25 -37 -47 -40 -50 -6
-5 -125 -157 -172 -220 -64 -85 -351 -448 -377 -477 -16 -18 -26 -35 -23 -38
3 -3 0 -5 -6 -5 -7 0 -12 -7 -12 -15 0 -8 -4 -15 -8 -15 -4 0 -25 -24 -47 -52
-21 -29 -44 -57 -50 -63 -6 -5 -22 -26 -35 -45 -13 -19 -29 -40 -35 -46 -11
-12 -47 -58 -94 -119 -17 -22 -39 -49 -49 -60 -10 -11 -27 -35 -37 -53 -11
-17 -22 -32 -26 -32 -3 0 -19 -19 -35 -42 -16 -23 -36 -49 -44 -58 -8 -9 -51
-63 -95 -119 -44 -57 -93 -120 -110 -141 -16 -20 -41 -52 -55 -70 -14 -18 -70
-90 -125 -160 -55 -70 -111 -141 -125 -159 -14 -18 -32 -41 -41 -51 -8 -10
-24 -31 -35 -46 -10 -14 -34 -43 -51 -63 -18 -20 -33 -42 -33 -48 0 -7 -4 -13
-10 -13 -12 0 -38 -59 -40 -92 -4 -47 1 -56 38 -74 31 -16 57 -19 152 -17 63
2 120 3 125 2 107 -6 2173 -3 2182 3 6 5 14 5 16 1 7 -11 128 -10 146 1 10 7
12 5 6 -3 -17 -29 33 10 67 51 20 24 50 59 67 78 17 19 34 40 38 45 8 10 81
99 118 144 11 13 29 34 40 47 11 12 31 37 45 54 49 63 142 176 171 208 16 18
29 36 29 39 0 4 9 16 20 28 18 18 165 196 182 220 4 6 22 28 40 50 19 22 69
85 113 140 43 55 84 105 89 110 6 6 27 30 46 55 19 25 39 50 45 56 6 6 28 34
50 62 21 29 43 52 48 52 4 0 5 5 2 10 -3 6 -2 10 4 10 5 0 13 9 16 20 3 11 13
20 21 20 8 0 12 5 9 10 -3 6 -3 10 2 10 4 0 19 16 32 35 13 19 33 45 45 58 42
48 76 89 76 93 0 2 9 14 19 26 108 129 132 158 127 158 -3 0 7 13 22 28 15 15
41 45 57 66 17 21 37 46 45 57 8 10 26 33 40 50 14 18 35 44 47 58 13 15 26
31 30 36 80 103 102 131 118 149 6 6 102 126 214 266 113 140 216 269 230 286
14 18 35 44 46 58 11 15 26 33 32 40 7 8 35 43 62 78 28 34 56 70 63 78 14 15
120 148 148 184 8 11 25 30 38 43 12 13 22 28 22 33 0 6 5 10 10 10 6 0 10 5
10 10 0 6 8 18 18 28 36 38 62 72 62 82 0 6 7 10 17 10 9 0 14 3 10 6 -3 4 -1
12 6 19 7 6 30 35 52 64 28 36 41 47 45 37 4 -12 5 -1421 1 -1462 -1 -7 -50
-10 -148 -9 l-148 2 -75 -77 c-41 -42 -104 -110 -140 -150 -36 -41 -72 -81
-80 -90 -8 -8 -37 -42 -65 -75 -27 -33 -55 -64 -61 -70 -9 -9 -51 -57 -145
-168 -13 -16 -37 -43 -52 -60 -16 -18 -43 -49 -60 -70 -18 -21 -41 -49 -52
-61 -11 -12 -38 -44 -60 -71 -22 -26 -59 -68 -82 -92 -23 -24 -43 -47 -43 -51
-1 -4 -18 -25 -39 -48 -20 -22 -54 -62 -76 -89 -68 -83 -128 -150 -137 -153
-4 -2 -8 -8 -8 -13 0 -9 -38 -56 -72 -88 -23 -22 -49 -86 -42 -104 13 -36 42
-37 819 -37 421 0 765 -3 766 -7 1 -5 2 -129 3 -278 1 -218 4 -274 16 -293 18
-26 93 -67 98 -52 2 6 9 7 15 3 16 -10 197 -10 197 0 0 5 6 5 13 0 16 -10
2557 -11 2563 -1 3 5 11 5 17 1 16 -10 147 -10 147 0 0 4 4 5 10 2 12 -7 49
11 75 39 20 20 20 36 23 3656 2 3716 3 3671 -33 3705 -17 17 -59 32 -82 30
-13 -1 -23 2 -23 7 0 5 -5 6 -12 2 -18 -11 -148 -11 -148 1 0 7 -3 7 -8 0 -8
-11 -192 -14 -192 -4 0 4 -15 4 -33 -1 -18 -4 -43 -3 -55 1 -12 5 -22 5 -22 1
0 -9 -47 -8 -56 0 -3 4 -18 3 -32 -2 -15 -4 -37 -3 -50 1 -12 5 -22 5 -22 1 0
-4 -11 -7 -25 -7 -14 0 -25 3 -25 6 0 4 -15 4 -33 -1 -18 -4 -43 -3 -55 1 -12
5 -22 5 -22 1 0 -9 -47 -8 -56 0 -3 4 -18 3 -32 -2 -15 -4 -37 -3 -50 1 -12 5
-22 5 -22 1 0 -4 -11 -7 -25 -7 -14 0 -25 3 -25 6 0 4 -15 4 -33 -1 -18 -4
-43 -3 -55 1 -12 5 -22 5 -22 1 0 -9 -47 -8 -56 0 -3 4 -18 3 -32 -2 -15 -4
-37 -3 -50 1 -12 5 -22 5 -22 1 0 -4 -11 -7 -25 -7 -14 0 -25 3 -25 6 0 4 -15
4 -33 -1 -18 -4 -43 -3 -55 1 -12 5 -22 5 -22 1 0 -4 -12 -7 -27 -6 -16 1 -28
3 -28 4 0 6 -68 4 -71 -2 -3 -4 -16 -3 -30 2 -17 7 -23 7 -19 0 8 -13 -1 -13
-26 0 -10 6 -19 7 -19 3 0 -10 -47 -10 -56 0 -4 3 -15 2 -25 -3 -11 -7 -20 -7
-24 0 -4 6 -15 6 -31 0 -17 -7 -23 -7 -19 0 4 7 -3 7 -20 0 -18 -7 -33 -7 -46
0 -13 7 -19 7 -19 1 0 -7 -8 -7 -23 -2 -13 5 -30 5 -39 0 -10 -6 -19 -6 -23 0
-4 7 -15 7 -31 1 -17 -7 -23 -7 -19 0 4 7 -3 7 -19 0 -17 -6 -26 -6 -26 1 0 6
-6 6 -18 0 -11 -6 -24 -6 -35 0 -9 6 -17 6 -17 1 0 -10 -36 -9 -46 1 -4 3 -15
2 -25 -3 -11 -7 -20 -7 -24 0 -4 6 -15 6 -31 0 -17 -7 -23 -7 -19 0 4 7 -3 7
-20 0 -18 -7 -33 -7 -46 0 -13 7 -19 7 -19 1 0 -7 -8 -7 -23 -2 -13 5 -30 5
-39 0 -10 -6 -19 -6 -23 0 -4 7 -15 7 -31 1 -17 -7 -23 -7 -19 0 4 7 -3 7 -19
0 -15 -5 -26 -6 -26 0 0 5 -12 5 -27 2 -35 -9 -75 -9 -89 0 -6 4 -14 5 -18 1z"/>
<path d="M4872 15483 c-13 -12 -55 -50 -95 -85 -39 -35 -81 -72 -92 -83 -12
-11 -41 -36 -66 -55 -24 -19 -49 -39 -55 -45 -6 -5 -25 -21 -43 -35 -19 -14
-41 -33 -49 -42 -9 -10 -22 -18 -29 -18 -7 0 -13 -3 -13 -7 -1 -5 -26 -26 -56
-48 -31 -22 -66 -50 -79 -62 -13 -13 -27 -23 -30 -23 -4 0 -12 -6 -20 -12 -7
-7 -25 -22 -40 -33 -94 -68 -196 -142 -215 -155 -12 -8 -28 -21 -36 -27 -7 -7
-16 -13 -21 -13 -4 0 -19 -9 -33 -20 -36 -29 -236 -159 -265 -172 -14 -6 -25
-15 -25 -19 0 -4 -9 -11 -21 -14 -11 -4 -40 -19 -62 -33 -74 -47 -82 -52 -107
-64 -14 -7 -32 -17 -40 -23 -35 -27 -485 -259 -585 -302 -27 -12 -77 -34 -110
-50 -33 -15 -62 -28 -65 -29 -3 0 -27 -11 -55 -23 -27 -13 -54 -24 -60 -25 -5
-1 -17 -6 -25 -11 -8 -5 -19 -10 -25 -10 -10 0 -15 -439 -5 -455 5 -8 170 -90
285 -142 99 -44 342 -138 358 -138 9 0 18 -4 21 -9 5 -7 34 -16 86 -25 3 -1
11 -5 18 -9 6 -5 17 -5 22 -2 6 3 10 1 10 -5 0 -7 7 -10 15 -7 8 4 17 2 19 -2
3 -5 20 -12 38 -16 18 -4 35 -9 38 -10 3 -1 23 -5 45 -10 22 -4 45 -10 50 -14
6 -3 21 -7 35 -9 14 -1 32 -5 40 -9 8 -3 18 -6 21 -5 4 1 22 -3 40 -9 19 -5
52 -12 73 -15 21 -2 42 -7 46 -9 7 -4 26 -8 110 -20 25 -4 57 -8 71 -11 50 -8
233 -32 309 -41 30 -4 72 -7 92 -7 21 -1 38 -3 38 -6 0 -3 19 -6 43 -7 23 -1
78 -4 122 -7 44 -4 136 -8 204 -11 68 -2 126 -7 129 -10 3 -2 11 0 19 6 7 6
13 8 13 3 0 -9 33 -9 198 -3 39 1 75 -1 78 -4 4 -3 14 -3 23 1 9 4 58 7 108 7
51 0 93 2 93 5 0 3 24 5 53 6 28 1 84 4 122 7 39 4 97 9 130 12 33 3 69 7 80
9 11 3 30 5 43 5 21 1 22 4 18 49 -3 26 -8 61 -11 77 -4 17 -8 44 -10 60 -8
72 -16 132 -21 155 -3 14 -7 41 -9 60 -5 34 -21 138 -29 190 -3 14 -5 25 -6
25 -1 0 -3 20 -5 45 -3 47 -13 117 -20 136 -3 10 28 44 41 44 2 0 10 5 17 10
45 38 65 53 94 71 18 11 33 25 33 30 0 5 3 8 8 7 4 -2 14 3 22 9 8 7 44 34 80
60 36 26 70 52 77 58 7 5 19 16 27 23 8 6 20 12 26 12 5 0 10 5 10 10 0 6 7
10 15 10 8 0 15 3 15 8 0 4 17 18 37 32 35 23 268 196 304 225 9 7 25 18 35
24 16 11 15 11 -11 6 -47 -11 -48 -11 -78 -23 -15 -7 -40 -15 -55 -18 -15 -4
-31 -9 -37 -13 -5 -3 -16 -6 -22 -7 -7 -1 -59 -16 -115 -34 -136 -41 -257 -77
-288 -85 -14 -3 -56 -15 -94 -25 -38 -10 -73 -17 -77 -14 -4 2 -9 0 -11 -5 -1
-6 -16 -12 -33 -15 -16 -2 -31 -5 -32 -6 -3 -3 -3 -3 -58 -15 -22 -4 -44 -10
-50 -11 -16 -5 -69 -16 -85 -19 -8 -1 -22 -5 -30 -8 -8 -3 -80 -20 -160 -36
-180 -37 -188 -39 -280 -57 -41 -7 -86 -16 -100 -19 -43 -10 -201 -37 -217
-37 -5 0 -16 -4 -27 -10 -14 -8 -17 -7 -11 3 6 8 4 10 -5 4 -7 -4 -23 -9 -34
-11 -12 -2 -31 -5 -43 -8 -11 -2 -43 -8 -70 -12 -26 -3 -54 -11 -60 -16 -9 -7
-13 -7 -13 0 0 7 -11 7 -32 2 -34 -9 -67 -14 -153 -25 -27 -4 -61 -8 -75 -11
-14 -2 -43 -6 -65 -9 -22 -3 -49 -7 -60 -9 -12 -2 -48 -7 -80 -11 -111 -13
-120 -14 -155 -19 -19 -3 -57 -8 -85 -10 -27 -3 -68 -7 -91 -10 -22 -3 -70 -8
-105 -11 -35 -3 -80 -7 -99 -9 -57 -6 -179 -16 -270 -22 -47 -2 -106 -6 -132
-9 -27 -2 -48 0 -48 4 0 4 6 8 13 8 6 0 44 4 82 8 154 16 228 25 245 30 8 2
44 7 80 10 36 4 74 9 85 11 11 2 31 6 45 8 14 3 48 8 75 11 28 3 91 13 140 21
115 19 132 22 175 28 33 4 64 10 135 23 17 3 45 6 63 7 17 0 32 4 32 7 0 3 6
6 13 6 13 0 65 9 107 18 24 5 38 8 120 22 34 6 55 10 95 18 54 12 74 16 120
25 28 6 60 12 73 15 23 5 49 11 92 20 128 27 123 26 170 38 14 4 36 9 50 11
14 2 72 16 130 30 58 15 114 28 125 31 11 2 81 20 155 41 74 20 142 38 150 39
8 2 15 4 15 5 0 2 34 10 55 14 8 1 24 7 35 13 11 6 22 11 25 11 3 0 23 5 44
10 22 6 43 9 48 6 4 -3 8 -1 8 3 0 5 21 15 48 23 134 39 613 201 669 226 17 8
36 14 42 14 6 0 11 4 11 8 0 5 7 9 15 9 13 0 32 7 130 48 17 7 41 18 55 23 14
6 50 22 80 35 30 14 75 33 100 42 96 37 168 76 212 117 7 7 36 29 63 48 28 19
56 40 63 47 7 7 16 13 20 13 4 0 23 14 42 30 19 16 38 30 42 30 4 0 13 6 20
13 21 21 127 97 134 97 3 -1 13 7 22 17 25 27 89 73 101 73 6 0 11 4 11 9 0 5
13 17 29 28 33 20 251 180 294 215 l28 23 -1562 0 -1563 0 -24 -22z"/>
<path d="M2299 13290 c-2 -20 -5 -38 -8 -42 -2 -2 -4 -14 -7 -28 -2 -14 -7
-32 -11 -40 -3 -8 -7 -19 -7 -25 -2 -16 -27 -119 -33 -135 -3 -8 -7 -22 -8
-30 -2 -8 -6 -24 -9 -35 -3 -11 -10 -40 -17 -65 -14 -58 -16 -67 -29 -115 -6
-22 -13 -49 -15 -60 -2 -11 -4 -20 -5 -20 -2 0 -10 -34 -14 -55 -1 -8 -8 -26
-15 -39 -10 -18 -10 -22 0 -16 8 5 10 4 5 -4 -8 -12 -52 -172 -60 -216 -3 -13
-7 -28 -10 -33 -3 -5 -7 -19 -9 -33 -3 -13 -21 -87 -41 -164 -20 -76 -39 -148
-41 -160 -2 -11 -5 -22 -6 -25 -1 -3 -3 -9 -4 -15 -1 -5 -7 -28 -13 -50 -6
-22 -13 -51 -16 -65 -2 -14 -5 -25 -6 -25 -1 0 -3 -7 -5 -15 -1 -8 -8 -35 -15
-60 -7 -25 -14 -52 -15 -60 -2 -13 -39 -154 -90 -343 -8 -32 -13 -62 -10 -67
3 -5 2 -10 -3 -12 -7 -3 -36 -105 -48 -173 -4 -16 -10 -38 -15 -47 -5 -9 -9
-21 -8 -25 1 -4 0 -10 -1 -13 -3 -10 -15 -57 -36 -144 l-7 -29 39 29 c21 16
41 31 44 34 3 3 21 17 40 30 19 13 40 29 46 35 32 28 55 45 63 45 5 0 11 3 13
8 4 8 126 102 133 102 5 0 15 9 66 55 9 8 21 15 27 15 7 0 12 3 12 8 1 4 26
25 56 47 107 78 199 150 202 157 2 5 8 8 14 8 11 0 96 65 116 89 6 8 12 12 12
8 0 -5 6 -3 13 3 6 5 28 24 47 40 19 16 38 30 42 30 4 0 13 6 20 13 34 32 107
87 116 87 6 0 12 3 14 8 5 11 95 82 105 82 5 0 15 9 23 20 8 11 18 20 22 20 4
0 16 7 25 15 10 8 54 41 98 74 44 33 85 64 90 68 6 5 109 83 230 173 121 91
222 167 225 170 3 3 21 17 40 30 19 13 37 27 40 30 3 4 55 43 115 88 61 45
115 85 120 89 6 5 28 22 50 38 22 17 49 38 59 47 34 31 55 31 91 4 18 -14 38
-26 43 -26 6 0 12 -4 14 -8 2 -5 55 -44 118 -87 63 -43 117 -82 118 -87 2 -4
9 -8 16 -8 7 0 21 -9 31 -20 10 -11 23 -20 30 -20 7 0 20 -9 30 -20 10 -11 24
-20 31 -20 7 0 14 -4 16 -8 2 -5 32 -28 68 -52 36 -24 67 -46 70 -49 3 -3 12
-10 21 -16 76 -47 149 -100 149 -107 0 -4 5 -8 10 -8 10 0 65 -37 301 -202 60
-43 114 -78 119 -78 4 0 10 -3 12 -7 2 -5 30 -27 63 -49 33 -23 88 -61 123
-85 35 -24 71 -48 80 -54 9 -5 19 -13 22 -16 3 -3 46 -33 95 -67 182 -125 240
-165 245 -171 3 -4 17 -12 33 -18 15 -7 27 -17 27 -23 0 -5 4 -10 9 -10 8 0
256 -168 307 -207 5 -4 17 -12 26 -18 9 -5 50 -34 91 -62 79 -56 116 -75 103
-55 -4 6 -22 56 -41 109 -19 54 -48 136 -65 183 -17 47 -33 92 -35 100 -6 22
-45 131 -55 155 -5 11 -19 49 -30 85 -12 36 -24 72 -27 80 -3 8 -7 20 -9 25
-1 6 -19 55 -39 110 -20 55 -43 120 -51 145 -8 25 -18 52 -21 60 -3 8 -7 22
-9 30 -2 8 -7 23 -13 35 -8 17 -39 102 -83 230 -5 17 -14 39 -20 50 -5 12 -10
27 -11 35 -2 8 -5 20 -8 25 -8 14 -23 68 -21 78 1 4 -3 7 -8 7 -5 0 -9 3 -9 8
3 14 -14 73 -22 78 -5 3 -9 15 -9 28 0 12 -4 26 -10 32 -5 5 -11 18 -13 29 -2
11 -7 27 -10 35 -4 8 -16 40 -26 70 -12 32 -25 54 -33 53 -20 -3 -71 -13 -88
-18 -8 -3 -33 -7 -55 -10 -22 -4 -47 -8 -55 -10 -24 -7 -91 -17 -135 -20 -22
-2 -40 -4 -40 -5 0 -3 -42 -7 -150 -15 -131 -10 -625 -13 -625 -5 0 4 -7 7
-15 7 -8 0 -15 -4 -15 -9 0 -5 -5 -6 -11 -2 -6 3 -48 8 -93 10 -83 3 -135 7
-241 19 -33 3 -79 8 -102 11 -24 2 -62 6 -85 9 -24 3 -65 7 -93 11 -27 3 -61
7 -75 9 -92 12 -128 17 -150 21 -14 2 -45 6 -70 9 -25 3 -58 9 -75 12 -16 4
-34 7 -40 8 -10 1 -79 12 -120 20 -11 2 -21 4 -22 5 -4 4 -14 6 -73 15 -61 10
-69 11 -72 15 -2 1 -12 4 -23 5 -11 1 -47 10 -80 19 -33 10 -67 18 -75 18 -8
0 -21 5 -27 11 -7 5 -13 7 -13 4 0 -4 -18 0 -40 8 -22 8 -41 14 -43 13 -11 -5
-406 137 -417 151 -3 3 -12 7 -20 9 -33 7 -272 131 -294 153 -18 16 -46 10
-47 -11z"/>
<path d="M9935 10510 c-35 -59 -218 -385 -244 -434 -14 -28 -32 -56 -38 -64
-7 -7 -13 -20 -13 -28 0 -8 -4 -14 -10 -14 -6 0 -9 -3 -8 -7 2 -5 -30 -67 -70
-139 -39 -73 -72 -136 -72 -142 0 -6 -3 -12 -7 -14 -5 -1 -23 -32 -42 -68
-113 -218 -168 -330 -163 -330 4 0 3 -4 -3 -8 -5 -4 -19 -25 -29 -47 -36 -74
-145 -231 -185 -268 -58 -52 -127 -84 -223 -102 -40 -8 -57 -25 -49 -48 8 -21
13 -22 122 -20 238 5 379 4 524 -2 123 -6 153 -4 169 8 18 13 18 15 2 38 -9
13 -19 23 -21 22 -3 -2 -6 -3 -7 -2 -2 0 -28 2 -58 5 -30 3 -57 8 -60 12 -3 4
-12 8 -20 10 -37 7 -89 36 -108 61 -33 46 -23 132 29 248 10 24 19 45 19 48 0
2 18 42 40 88 l40 83 363 -1 c199 0 367 -3 374 -8 10 -6 82 -126 92 -152 11
-32 47 -101 56 -107 5 -4 6 -8 1 -8 -5 0 -4 -6 2 -13 6 -7 19 -44 30 -82 15
-57 17 -75 7 -98 -18 -44 -76 -73 -165 -83 -19 -2 -44 -6 -55 -8 -11 -3 -26
-5 -32 -5 -7 -1 -13 -10 -13 -21 0 -36 41 -42 220 -34 216 10 500 9 730 -1
163 -7 187 -6 199 8 17 21 5 56 -17 52 -9 -1 -21 0 -27 3 -5 3 -21 6 -35 7
-37 2 -130 35 -130 46 0 6 -4 8 -9 5 -16 -10 -85 66 -141 154 -19 30 -38 57
-42 58 -5 2 -8 8 -8 14 0 5 -8 22 -19 36 -10 15 -35 57 -55 95 -66 124 -103
192 -128 237 -14 25 -40 72 -58 105 -44 80 -72 132 -100 180 -13 22 -37 65
-53 95 -17 30 -57 99 -89 153 -32 55 -58 101 -58 103 0 3 -56 97 -134 225 -23
37 -53 87 -68 113 -20 32 -34 46 -50 47 -13 0 -40 1 -61 2 -22 1 -40 0 -42 -3z
m-44 -578 c5 -2 9 -8 9 -12 0 -5 29 -59 65 -120 36 -61 65 -115 65 -120 0 -4
3 -10 8 -12 8 -4 82 -142 82 -155 0 -4 -108 -8 -240 -8 -132 0 -240 -4 -240
-8 0 -5 -5 -5 -11 -2 -15 10 -80 12 -85 3 -3 -4 -11 -5 -20 -1 -14 5 -11 41 6
53 3 3 34 57 67 120 95 181 97 185 108 192 6 4 6 8 1 8 -5 0 -2 7 5 16 8 9 25
40 39 68 15 28 35 65 45 83 l19 31 34 -66 c19 -37 38 -68 43 -70z"/>
<path d="M18388 10512 c-9 -2 -22 -16 -28 -33 -7 -16 -16 -29 -21 -29 -5 0 -9
-6 -9 -13 0 -7 -13 -33 -28 -58 -16 -25 -50 -85 -77 -134 -26 -50 -51 -94 -55
-100 -7 -10 -34 -58 -98 -175 -16 -30 -41 -75 -54 -100 -37 -66 -127 -235
-167 -315 -20 -38 -40 -73 -46 -77 -5 -4 -6 -8 -1 -8 5 0 2 -8 -7 -17 -8 -10
-16 -20 -16 -23 0 -5 -51 -114 -70 -150 -4 -8 -14 -26 -21 -39 -145 -278 -250
-375 -429 -397 -42 -5 -57 -57 -20 -69 11 -4 77 -4 147 0 156 9 260 9 468 0
143 -7 162 -6 177 10 9 9 17 20 17 25 0 16 -37 30 -97 36 -31 3 -60 8 -63 12
-3 4 -13 8 -23 10 -78 13 -132 80 -122 149 9 59 11 67 19 85 4 9 9 22 10 30 2
12 9 28 53 126 20 44 19 41 28 70 4 12 11 22 15 22 4 0 10 10 14 23 l5 23 363
-1 c200 0 368 -3 375 -8 13 -8 84 -133 83 -143 -1 -4 2 -10 7 -13 9 -7 41 -63
41 -71 -1 -3 8 -23 19 -45 21 -39 38 -96 46 -145 10 -58 -62 -116 -154 -124
-24 -2 -44 -5 -44 -6 0 -1 -12 -3 -27 -4 -38 -2 -56 -21 -42 -44 10 -15 28
-17 140 -15 510 7 635 6 759 -1 172 -10 224 -9 242 5 23 20 15 46 -17 58 -22
7 -29 7 -24 -1 4 -6 3 -8 -3 -5 -10 6 -68 19 -90 20 -7 0 -13 4 -13 9 0 4 -7
8 -16 8 -18 0 -124 68 -124 80 0 5 -6 15 -12 22 -24 25 -58 77 -58 88 0 5 -5
10 -10 10 -6 0 -16 12 -23 28 -6 15 -14 29 -18 32 -3 3 -14 19 -23 35 -9 17
-27 48 -39 70 -13 22 -49 90 -81 150 -32 61 -62 115 -66 120 -4 6 -23 40 -44
78 -20 37 -52 97 -73 135 -20 37 -44 79 -55 94 -10 14 -18 28 -18 31 0 3 -34
64 -75 136 -41 72 -75 136 -75 141 0 6 -4 10 -8 10 -4 0 -21 26 -37 57 -17 31
-38 66 -47 77 -10 11 -18 23 -18 27 0 4 -18 36 -40 70 -22 35 -49 81 -60 101
-11 20 -24 39 -30 43 -11 7 -88 12 -112 7z m-111 -489 c9 -21 19 -40 22 -43 5
-5 31 -50 64 -112 6 -13 22 -37 35 -55 12 -17 22 -35 22 -39 0 -4 6 -15 14
-23 7 -9 24 -36 37 -61 13 -25 26 -47 29 -50 13 -14 69 -130 62 -131 -4 -1
-119 -3 -255 -4 -136 -1 -250 -5 -253 -8 -3 -3 -18 -2 -34 3 -15 4 -32 4 -37
-1 -4 -4 -14 -4 -22 0 -10 7 -6 21 20 67 18 33 42 77 52 99 11 22 22 42 26 45
3 3 18 30 33 60 28 56 136 255 151 278 12 18 14 16 34 -25z"/>
<path d="M23718 10495 c-2 -2 -30 -5 -63 -6 -33 -2 -66 -7 -72 -12 -9 -6 -13
-5 -13 2 0 7 -4 9 -10 6 -5 -3 -20 -8 -32 -10 -13 -3 -48 -10 -78 -17 -30 -6
-57 -12 -60 -13 -14 -3 -86 -28 -95 -34 -5 -3 -14 -6 -20 -7 -22 -4 -205 -98
-205 -106 0 -4 -5 -8 -11 -8 -6 0 -28 -13 -49 -30 -21 -16 -41 -30 -44 -30 -3
0 -14 -8 -24 -17 -10 -10 -34 -32 -53 -50 -91 -84 -189 -233 -203 -310 -3 -12
-9 -30 -14 -40 -6 -10 -10 -21 -10 -26 0 -4 -4 -26 -8 -50 -7 -44 -15 -111
-15 -137 1 -21 9 -115 11 -115 1 0 3 -9 4 -20 5 -37 28 -110 38 -122 6 -7 8
-13 5 -13 -4 0 10 -30 30 -67 48 -93 116 -174 192 -233 18 -14 39 -31 46 -37
8 -7 16 -13 20 -13 3 0 21 -11 38 -24 37 -27 197 -108 197 -99 0 3 7 0 15 -7
8 -7 15 -9 15 -5 0 4 6 3 13 -2 6 -6 26 -14 42 -18 17 -5 35 -9 40 -11 44 -13
124 -30 190 -42 22 -4 157 -7 300 -7 275 0 326 6 459 57 28 11 57 20 64 21 6
0 12 4 12 9 0 4 3 7 8 6 20 -5 153 71 260 149 149 109 215 212 147 229 -40 10
-67 -2 -126 -58 -149 -142 -256 -209 -413 -257 -160 -49 -359 -44 -513 15 -59
21 -121 52 -133 64 -3 3 -18 12 -33 20 -62 32 -230 220 -230 258 0 6 -4 12 -8
12 -7 0 -58 124 -64 158 -2 9 -4 17 -5 17 -2 0 -5 18 -15 80 -14 90 -5 266 19
355 8 30 12 58 10 62 -3 5 0 8 5 8 6 0 11 5 11 11 0 39 88 177 149 234 12 11
29 28 39 38 9 9 21 17 26 17 5 0 19 8 30 18 17 15 122 63 146 68 3 0 25 6 50
13 53 16 223 21 300 9 30 -5 87 -20 125 -34 39 -14 78 -28 88 -31 9 -3 17 -9
17 -14 0 -5 5 -9 11 -9 44 0 254 -202 334 -321 58 -86 61 -89 98 -87 40 3 51
22 48 86 -2 61 -8 137 -11 137 -1 0 -12 147 -14 202 0 24 -3 43 -6 43 -3 0 -6
21 -7 47 -2 91 -67 101 -145 22 -64 -65 -75 -69 -115 -53 -42 18 -254 80 -303
88 -19 4 -50 9 -67 11 -18 3 -50 7 -70 10 -21 3 -87 8 -148 11 -60 2 -118 6
-127 8 -9 2 -18 2 -20 1z"/>
<path d="M11404 10472 c-12 -2 -29 -11 -38 -21 -15 -16 -15 -19 2 -35 11 -9
41 -18 68 -20 117 -9 189 -38 228 -91 23 -30 57 -121 49 -129 -3 -3 -2 -13 2
-23 11 -26 12 -255 1 -270 -5 -8 -5 -13 0 -13 10 0 11 -86 2 -96 -3 -3 -3 -18
1 -32 5 -15 5 -36 1 -47 -4 -11 -3 -25 2 -32 5 -7 5 -14 -2 -18 -7 -4 -7 -12
0 -26 8 -13 7 -25 0 -39 -7 -14 -8 -26 0 -39 5 -11 7 -26 4 -35 -9 -24 -10
-126 -1 -126 4 0 6 -4 3 -8 -10 -17 -14 -62 -6 -67 5 -3 7 -15 4 -28 -3 -12
-7 -49 -9 -82 -14 -191 -26 -231 -80 -277 -11 -10 -26 -22 -32 -28 -7 -6 -13
-9 -13 -6 0 3 -15 -1 -34 -9 -30 -13 -58 -18 -158 -29 -47 -5 -59 -13 -56 -34
6 -34 28 -39 152 -34 168 5 1347 7 1646 1 l245 -4 18 65 c10 36 20 75 23 87 2
12 9 34 14 48 5 14 8 25 5 25 -2 0 1 15 6 33 5 17 12 47 15 66 3 18 8 43 10
55 6 26 10 47 19 112 7 52 1 65 -34 70 -23 4 -57 -17 -74 -45 -8 -14 -27 -39
-41 -54 -14 -15 -22 -27 -19 -27 15 0 -168 -169 -220 -203 -52 -35 -139 -79
-162 -82 -5 -1 -22 -7 -36 -13 -15 -6 -52 -15 -83 -21 -32 -6 -62 -14 -68 -17
-7 -4 -8 -2 -4 4 5 9 1 10 -16 4 -31 -11 -92 -16 -225 -16 -65 -1 -109 -5
-105 -10 3 -6 -3 -6 -14 -1 -10 4 -33 9 -50 10 -41 3 -91 30 -105 57 -22 41
-24 99 -24 648 0 537 4 650 24 704 24 62 94 101 199 113 32 3 64 7 72 9 8 1
25 3 38 3 12 1 31 10 42 21 19 19 20 22 4 37 -14 14 -37 16 -153 14 -173 -4
-704 -3 -881 1 -74 2 -145 2 -156 0z"/>
<path d="M13670 10472 c-50 -8 -66 -42 -29 -63 12 -6 43 -12 70 -14 102 -7
156 -28 202 -79 15 -17 30 -42 34 -56 3 -14 9 -29 13 -35 5 -5 9 -26 11 -45 2
-19 5 -39 7 -43 3 -7 5 -892 2 -907 -1 -3 -3 -32 -5 -65 -4 -52 -8 -87 -19
-145 -13 -77 -80 -137 -174 -155 -9 -2 -17 -4 -17 -5 0 -1 -19 -4 -43 -6 -85
-9 -124 -22 -120 -43 7 -33 45 -40 197 -33 161 7 1254 8 1616 1 l229 -4 23 75
c13 41 25 86 28 100 3 14 9 40 14 58 5 18 10 35 10 37 1 3 1 6 2 8 0 1 2 9 4
17 12 57 17 79 21 105 3 17 7 41 10 55 15 79 14 89 -8 101 -31 17 -75 -10
-116 -71 -44 -64 -175 -198 -235 -239 -90 -61 -217 -119 -282 -127 -11 -1 -33
-5 -50 -9 -55 -12 -99 -15 -275 -20 -246 -7 -278 5 -298 110 -3 17 -6 47 -6
67 -1 21 -5 38 -9 38 -5 0 -5 5 -2 10 3 6 6 45 5 88 -1 115 -1 115 1 352 1 75
1 76 0 155 0 39 -1 79 -1 90 1 11 1 83 1 160 -1 151 5 262 15 310 8 36 56 110
74 112 3 1 25 6 50 13 25 7 61 14 80 16 126 13 157 21 165 42 13 35 -17 44
-141 42 -246 -3 -774 -2 -899 2 -71 2 -141 2 -155 0z"/>
<path d="M19936 10473 c-3 -4 -33 -5 -65 -4 -63 3 -101 -12 -101 -40 0 -23 15
-29 136 -54 32 -7 136 -59 166 -83 71 -58 143 -155 156 -212 23 -102 25 -142
26 -575 1 -400 -1 -445 -17 -490 -29 -80 -72 -134 -108 -135 -9 0 -19 -3 -23
-7 -3 -4 -12 -8 -19 -9 -7 -2 -23 -5 -37 -8 -14 -3 -52 -8 -85 -10 -66 -6
-105 -13 -113 -20 -2 -3 -2 -17 2 -31 8 -31 32 -34 206 -20 118 10 432 10 606
0 134 -8 174 -1 174 30 0 22 -22 31 -105 40 -65 7 -94 14 -157 40 -87 35 -136
93 -145 168 -1 15 -7 36 -12 45 -9 18 -14 825 -5 855 5 14 12 11 47 -23 23
-22 45 -40 49 -40 4 0 21 -13 36 -30 16 -16 32 -30 36 -30 4 0 20 -12 35 -27
16 -16 35 -33 43 -38 7 -6 76 -62 153 -125 77 -63 148 -122 158 -130 10 -8 27
-22 37 -30 9 -8 32 -26 50 -40 18 -14 38 -30 44 -35 6 -6 36 -30 66 -55 30
-25 57 -48 58 -52 2 -5 10 -8 18 -8 8 0 14 -3 14 -7 0 -5 17 -19 37 -33 20
-14 44 -32 52 -41 9 -8 36 -31 61 -50 25 -18 53 -41 63 -49 38 -31 57 -46 97
-74 22 -17 40 -33 40 -38 0 -4 6 -8 13 -8 6 0 26 -14 44 -30 18 -17 37 -30 42
-30 6 0 11 -4 11 -9 0 -5 15 -18 33 -30 17 -11 41 -28 52 -38 46 -41 132 -93
155 -93 54 1 61 18 67 157 5 129 7 616 4 1013 -1 225 1 260 27 321 12 30 92
99 114 99 7 0 19 5 24 10 12 12 37 18 120 29 67 10 116 35 107 56 -8 22 -41
28 -138 25 -137 -4 -651 -3 -727 2 -70 5 -101 -5 -106 -34 -4 -23 26 -37 93
-43 61 -5 134 -23 149 -37 6 -4 17 -8 25 -8 24 -1 91 -55 113 -90 21 -36 38
-106 43 -182 2 -29 4 -55 5 -58 2 -3 1 -9 0 -15 -7 -32 -6 -55 2 -55 5 0 7 -4
3 -9 -10 -17 -13 -71 -3 -71 5 0 6 -4 3 -10 -10 -15 -12 -81 -3 -86 4 -3 3
-14 -3 -26 -9 -16 -8 -19 2 -13 8 6 10 4 5 -4 -10 -16 -13 -101 -4 -101 4 0 5
-6 2 -13 -8 -22 -10 -147 -2 -147 4 0 4 -10 -1 -22 -5 -13 -5 -32 -1 -44 11
-29 -3 -50 -21 -32 -8 8 -30 25 -49 38 -40 28 -44 31 -86 65 -18 14 -36 25
-42 25 -6 0 -12 4 -14 9 -1 5 -39 37 -83 70 -113 86 -137 104 -151 119 -7 6
-15 12 -18 12 -3 0 -16 9 -28 19 -13 11 -81 65 -153 121 -71 56 -145 115 -162
131 -18 16 -35 29 -38 29 -5 0 -46 33 -77 63 -10 9 -21 17 -24 17 -3 0 -16 9
-28 20 -11 11 -75 63 -141 116 -66 53 -138 111 -160 129 -22 18 -62 51 -89 73
l-48 40 -256 1 c-140 1 -258 4 -262 6 -4 2 -10 2 -14 -2z"/>
<path d="M15958 10459 c-10 -5 -18 -18 -18 -27 0 -25 28 -38 87 -41 29 -1 76
-10 105 -20 48 -16 55 -23 80 -72 28 -56 30 -75 44 -299 8 -136 8 -270 0 -640
-6 -278 -7 -297 -27 -383 -15 -63 -63 -110 -124 -122 -5 -1 -12 -3 -15 -5 -7
-4 -36 -8 -92 -14 -26 -2 -52 -7 -57 -10 -10 -7 -7 -44 5 -55 3 -3 51 -4 107
-2 141 7 660 6 844 -1 165 -5 213 4 213 40 0 28 -73 47 -112 29 -10 -4 -18 -4
-18 2 0 5 -11 8 -25 6 -14 -1 -25 2 -25 7 0 6 -7 8 -15 4 -8 -3 -15 -1 -15 4
0 6 -6 10 -13 10 -24 0 -72 64 -83 111 -2 10 -7 29 -10 42 -13 51 -27 241 -28
384 -1 57 -5 103 -9 103 -4 0 -3 8 2 18 5 10 6 24 1 31 -4 8 -4 26 0 42 5 15
6 30 3 33 -13 12 -4 400 12 531 11 95 19 119 52 162 26 35 86 58 178 68 82 9
88 11 96 32 13 36 -28 42 -236 38 -302 -7 -455 -7 -680 -1 -136 3 -216 2 -227
-5z"/>
<path d="M25048 10460 c-16 -4 -24 -14 -26 -32 -3 -29 3 -31 103 -44 28 -3 53
-8 57 -11 5 -2 18 -6 30 -8 60 -11 97 -52 104 -114 9 -70 20 -438 14 -461 -1
-3 -3 -93 -5 -200 -1 -107 -4 -197 -5 -200 -1 -3 -2 -9 -1 -14 6 -32 6 -78 0
-81 -4 -3 -3 -20 1 -39 4 -19 6 -37 3 -39 -2 -3 -6 -45 -7 -93 -6 -163 -33
-216 -130 -260 -47 -21 -76 -27 -126 -27 -71 1 -99 -9 -96 -32 5 -37 22 -40
199 -36 209 5 486 4 1283 -5 l611 -7 6 24 c3 13 17 62 31 109 24 76 32 106 39
144 1 6 5 13 9 17 4 3 9 18 12 35 2 16 8 40 13 54 27 67 -57 96 -100 35 -52
-73 -201 -195 -237 -195 -5 0 -10 -5 -10 -10 0 -6 -3 -9 -7 -8 -5 1 -34 -8
-66 -20 -51 -19 -78 -27 -172 -48 -11 -3 -33 -7 -50 -9 -16 -2 -42 -6 -56 -9
-14 -3 -64 -8 -112 -10 -47 -2 -90 -7 -96 -10 -5 -4 -12 -2 -16 4 -4 6 -12 7
-18 3 -13 -8 -117 -11 -117 -3 0 3 -21 5 -48 4 -52 0 -127 16 -176 40 -44 21
-70 70 -74 141 -3 60 -2 445 2 520 l2 40 74 -2 c135 -2 281 -35 355 -78 55
-32 123 -117 135 -170 14 -57 47 -75 93 -49 20 12 23 31 12 89 -10 54 -10 225
0 360 4 61 8 133 9 160 l1 50 -37 3 c-35 3 -40 0 -68 -45 -65 -105 -163 -193
-222 -199 -10 -1 -19 -2 -20 -4 -7 -5 -49 -11 -108 -16 -36 -3 -67 -8 -69 -10
-2 -2 -12 1 -22 7 -11 5 -19 6 -19 2 0 -4 -11 -8 -25 -8 -14 0 -25 4 -25 8 0
5 -6 5 -12 0 -20 -12 -37 -12 -44 -1 -4 6 -6 79 -5 162 3 259 20 459 39 478 8
8 201 21 327 21 91 0 270 -15 270 -23 0 -1 11 -3 24 -6 59 -11 133 -37 165
-59 19 -13 36 -21 39 -19 2 3 10 -2 17 -11 7 -8 19 -15 26 -15 8 0 14 -4 14
-8 0 -4 12 -15 28 -24 15 -9 62 -51 106 -93 84 -82 120 -101 151 -79 17 13 17
16 1 76 -9 35 -18 72 -21 83 -2 11 -13 48 -24 83 -10 34 -17 62 -14 62 3 0 1
6 -5 13 -5 6 -13 31 -17 54 -4 24 -12 46 -18 50 -5 3 -391 8 -856 9 -465 2
-880 5 -923 6 -42 2 -87 1 -100 -2z"/>
</g>
</svg>
