<svg xmlns="http://www.w3.org/2000/svg" viewBox="0 0 341 122" width="341" height="122">
	<style>
		tspan { white-space:pre }
		.shp0 { fill: #ffe2c7 } 
		.shp1 { fill: #d9d8d6 } 
		.shp2 { fill: #0f206c } 
		.shp3 { fill: #ff6b00 } 
	</style>
	<path id="Layer" class="shp0" d="M12.3 44.49L12.43 44.44L12.3 44.49Z" />
	<path id="Layer" fill-rule="evenodd" class="shp1" d="M282 1.53L252.94 1.53C252.74 1.53 247.41 8.03 239.71 17.53L239.71 2.91C239.7 2.72 239.64 2.53 239.56 2.35C239.47 2.18 239.35 2.02 239.2 1.89C239.06 1.77 238.89 1.67 238.7 1.61C238.52 1.54 238.32 1.52 238.13 1.53L206 1.53C205.88 1.53 205.75 1.54 205.63 1.57C205.51 1.59 205.39 1.63 205.28 1.69C205.16 1.74 205.06 1.8 204.96 1.88C204.86 1.96 204.77 2.04 204.69 2.14C204.53 2.35 142.13 81.85 134.11 92.08C134 92.19 133.91 92.32 133.83 92.45C133.74 92.58 133.67 92.72 133.61 92.86C133.55 93 133.5 93.15 133.47 93.3C133.43 93.45 133.41 93.61 133.4 93.76C133.46 93.88 133.53 93.98 133.61 94.08C133.7 94.18 133.8 94.26 133.91 94.33C134.02 94.4 134.14 94.45 134.26 94.49C134.38 94.52 134.51 94.54 134.64 94.54L162.64 94.54C163.05 94.54 184.7 67.54 204.44 42.93L204.44 61.61C193.2 75.66 183.58 87.73 180.39 91.74C179.65 92.66 179.39 93.74 179.51 93.96C179.57 94.05 179.65 94.13 179.73 94.2C179.82 94.27 179.91 94.33 180.01 94.38C180.1 94.43 180.21 94.47 180.31 94.5C180.42 94.53 180.53 94.54 180.64 94.54L208.64 94.54C209.07 94.54 232.42 65.45 252.73 40.05L252.73 55C252.73 55.76 283.47 19.11 283.47 18.35L283.47 2.91C283.47 2.72 283.43 2.53 283.36 2.36C283.28 2.19 283.17 2.03 283.03 1.9C282.9 1.77 282.73 1.67 282.56 1.61C282.38 1.54 282.19 1.52 282 1.53L282 1.53Z" />
	<path id="Layer" fill-rule="evenodd" class="shp1" d="M195.66 1.53L115 1.53C114.86 1.51 114.71 1.53 114.58 1.56C114.44 1.6 114.31 1.67 114.2 1.75C114.08 1.84 113.99 1.95 113.91 2.07C113.84 2.19 113.79 2.33 113.77 2.47L113.77 93.16C113.77 93.34 113.81 93.52 113.88 93.69C113.94 93.86 114.05 94.01 114.17 94.14C114.3 94.26 114.45 94.37 114.62 94.43C114.79 94.5 114.97 94.54 115.15 94.54L122.33 94.54C123.02 94.54 141.06 71.39 144.08 67.54C144.12 67.5 144.15 67.45 144.19 67.41C144.22 67.37 144.26 67.32 144.29 67.27C144.32 67.22 144.34 67.17 144.37 67.12C144.4 67.07 144.42 67.02 144.44 66.97C144.45 66.92 144.47 66.87 144.48 66.81C144.49 66.76 144.49 66.71 144.5 66.65C144.5 66.6 144.51 66.55 144.51 66.49C144.51 66.44 144.51 66.38 144.51 66.33L144.51 48.2L159.3 48.2C159.71 48.2 168.84 37.4 170.96 34.88C171.24 34.55 171.01 33.72 170.54 33.72L144.48 33.72L144.48 22.42L179.48 22.42C180.09 22.42 193.48 6.55 196.38 3.12C196.69 2.7 196.34 1.53 195.66 1.53Z" />
	<path id="Layer" fill-rule="evenodd" class="shp1" d="M339.28 1.53L307.11 1.53C306.98 1.53 306.86 1.54 306.73 1.57C306.61 1.6 306.49 1.64 306.37 1.69C306.26 1.75 306.15 1.81 306.05 1.89C305.95 1.97 305.86 2.06 305.78 2.16L235.22 92.08C235.11 92.2 235.01 92.34 234.92 92.48C234.84 92.63 234.77 92.78 234.72 92.94C234.67 93.1 234.63 93.26 234.61 93.43C234.59 93.6 234.59 93.76 234.61 93.93C234.67 94.02 234.75 94.11 234.83 94.18C234.91 94.26 235.01 94.32 235.1 94.38C235.2 94.43 235.31 94.47 235.42 94.5C235.53 94.52 235.64 94.54 235.75 94.54L263.75 94.54C264.16 94.54 285.81 67.54 305.55 42.93L305.55 67.07L301.85 67.07C301.28 67.07 288.63 82.07 285.99 85.18C285.68 85.54 285.6 86.12 285.74 86.27C285.8 86.33 285.87 86.38 285.94 86.42C286.02 86.47 286.09 86.51 286.17 86.54C286.25 86.57 286.33 86.59 286.42 86.6C286.5 86.62 286.59 86.62 286.67 86.62L305.55 86.62L305.55 93.16C305.56 93.35 305.62 93.54 305.7 93.72C305.79 93.89 305.91 94.05 306.06 94.18C306.2 94.3 306.37 94.4 306.56 94.46C306.74 94.53 306.94 94.55 307.13 94.54L339.3 94.54C339.49 94.55 339.69 94.53 339.87 94.46C340.06 94.4 340.23 94.3 340.37 94.18C340.52 94.05 340.64 93.89 340.73 93.72C340.81 93.54 340.87 93.35 340.88 93.16L340.88 2.91C340.87 2.71 340.81 2.52 340.73 2.35C340.64 2.17 340.52 2.02 340.37 1.89C340.22 1.76 340.05 1.66 339.86 1.6C339.67 1.54 339.48 1.52 339.28 1.53Z" />
	<path id="Layer" fill-rule="evenodd" class="shp2" d="M277.63 1.53L248.56 1.53C248.36 1.53 243.04 8.03 235.34 17.53L235.34 2.91C235.32 2.72 235.27 2.53 235.18 2.35C235.1 2.18 234.98 2.02 234.83 1.89C234.68 1.77 234.51 1.67 234.32 1.61C234.14 1.54 233.94 1.52 233.75 1.53L201.58 1.53C201.46 1.53 201.33 1.54 201.21 1.57C201.09 1.6 200.97 1.64 200.86 1.69C200.74 1.74 200.64 1.81 200.54 1.88C200.44 1.96 200.35 2.04 200.27 2.14L129.69 92.08C129.58 92.19 129.49 92.32 129.41 92.45C129.32 92.58 129.25 92.72 129.19 92.86C129.13 93 129.08 93.15 129.05 93.3C129.01 93.45 128.99 93.61 128.98 93.76C129.04 93.88 129.11 93.98 129.19 94.08C129.28 94.18 129.38 94.26 129.49 94.33C129.6 94.4 129.72 94.45 129.84 94.49C129.96 94.52 130.09 94.54 130.22 94.54L158.22 94.54C158.64 94.54 180.29 67.54 200.02 42.93L200.02 61.61C188.78 75.66 179.16 87.73 175.97 91.74C175.24 92.66 174.97 93.74 175.1 93.96C175.16 94.05 175.24 94.13 175.32 94.2C175.4 94.27 175.49 94.34 175.59 94.39C175.69 94.44 175.79 94.47 175.9 94.5C176 94.53 176.11 94.54 176.22 94.54L204.22 94.54C204.65 94.54 228 65.45 248.31 40.05L248.31 55C248.31 55.76 279.05 19.11 279.05 18.35L279.05 2.91C279.05 2.73 279.01 2.54 278.94 2.37C278.87 2.2 278.76 2.05 278.63 1.92C278.5 1.79 278.34 1.69 278.17 1.62C278 1.56 277.81 1.52 277.63 1.53L277.63 1.53Z" />
	<path id="Layer" fill-rule="evenodd" class="shp2" d="M191.28 1.53L110.59 1.53C110.45 1.51 110.3 1.53 110.17 1.56C110.03 1.6 109.9 1.67 109.79 1.75C109.67 1.84 109.58 1.95 109.5 2.07C109.43 2.19 109.38 2.33 109.36 2.47L109.36 93.16C109.36 93.34 109.4 93.52 109.47 93.69C109.53 93.86 109.64 94.01 109.76 94.14C109.89 94.26 110.04 94.37 110.21 94.43C110.38 94.5 110.56 94.54 110.74 94.54L117.92 94.54C118.61 94.54 136.65 71.39 139.67 67.54C139.7 67.5 139.74 67.46 139.77 67.42C139.8 67.37 139.83 67.33 139.86 67.28C139.89 67.24 139.91 67.19 139.93 67.14C139.96 67.1 139.98 67.05 140 67C140.01 66.95 140.03 66.9 140.04 66.84C140.05 66.79 140.05 66.74 140.06 66.68C140.06 66.63 140.07 66.58 140.07 66.52C140.07 66.47 140.07 66.41 140.07 66.36L140.07 48.2L154.89 48.2C155.3 48.2 164.43 37.4 166.55 34.88C166.83 34.55 166.6 33.72 166.13 33.72L140.1 33.72L140.1 22.42L175.1 22.42C175.71 22.42 189.1 6.55 192 3.12C192.31 2.7 192 1.53 191.28 1.53Z" />
	<path id="Layer" fill-rule="evenodd" class="shp2" d="M334.9 1.53L302.73 1.53C302.6 1.53 302.48 1.54 302.35 1.57C302.23 1.59 302.11 1.64 302 1.69C301.88 1.74 301.77 1.81 301.68 1.89C301.58 1.97 301.49 2.06 301.41 2.16L230.84 92.08C230.73 92.2 230.63 92.34 230.54 92.48C230.46 92.63 230.39 92.78 230.34 92.94C230.29 93.1 230.25 93.26 230.23 93.43C230.21 93.6 230.21 93.76 230.23 93.93C230.29 94.02 230.37 94.11 230.45 94.18C230.53 94.26 230.63 94.32 230.73 94.37C230.82 94.43 230.93 94.47 231.04 94.5C231.15 94.52 231.26 94.54 231.37 94.54L259.37 94.54C259.78 94.54 281.43 67.54 301.17 42.93L301.17 67.07L297.47 67.07C296.9 67.07 284.25 82.07 281.61 85.18C281.31 85.54 281.22 86.12 281.37 86.27C281.43 86.33 281.5 86.38 281.57 86.42C281.64 86.47 281.72 86.51 281.8 86.54C281.87 86.57 281.96 86.59 282.04 86.6C282.12 86.62 282.21 86.62 282.29 86.62L301.17 86.62L301.17 93.16C301.18 93.35 301.24 93.54 301.32 93.72C301.41 93.89 301.53 94.05 301.68 94.18C301.82 94.3 301.99 94.4 302.18 94.46C302.36 94.53 302.56 94.55 302.75 94.54L334.9 94.54C335.09 94.55 335.29 94.53 335.47 94.46C335.66 94.4 335.83 94.3 335.97 94.18C336.12 94.05 336.24 93.89 336.33 93.72C336.41 93.54 336.47 93.35 336.48 93.16L336.48 2.91C336.47 2.72 336.41 2.53 336.33 2.35C336.24 2.18 336.12 2.02 335.97 1.89C335.83 1.77 335.66 1.67 335.47 1.61C335.29 1.54 335.09 1.52 334.9 1.53L334.9 1.53Z" />
	<path id="Layer" fill-rule="evenodd" class="shp3" d="M124.2 100.1L125.71 100.1C127.65 103.14 130.39 107.91 133.94 114.41C134.18 114.89 134.42 115.36 134.68 115.83C134.94 116.3 135.21 116.76 135.49 117.21C135.77 117.67 136.07 118.11 136.37 118.55C136.67 118.99 136.99 119.43 137.31 119.85C137.51 120.03 137.73 120.19 137.96 120.33C138.19 120.47 138.43 120.59 138.68 120.68C138.93 120.78 139.19 120.86 139.45 120.91C139.71 120.97 139.98 121 140.25 121.01C140.69 121.01 140.91 121.19 140.91 121.42C140.91 121.65 140.63 121.91 140.05 121.91C139.74 121.91 138.94 121.91 137.65 121.8C136.11 121.71 134.83 121.66 133.78 121.66C132.73 121.66 131.44 121.66 129.78 121.79C128.55 121.85 127.78 121.88 127.37 121.88C126.69 121.88 126.37 121.73 126.37 121.42C126.37 121.11 126.61 121.06 127.08 121.02C128.89 120.91 129.8 120.39 129.8 119.49C129.77 119.28 129.73 119.08 129.68 118.88C129.63 118.68 129.57 118.48 129.5 118.28C129.44 118.08 129.36 117.89 129.28 117.7C129.19 117.51 129.1 117.32 129 117.14C128.88 116.87 128.75 116.61 128.62 116.34C128.49 116.08 128.35 115.82 128.21 115.56C128.07 115.31 127.92 115.05 127.77 114.8C127.62 114.55 127.47 114.3 127.31 114.05L118.14 114.05C116.87 116.55 116.23 118.22 116.24 119.05C116.24 119.2 116.27 119.34 116.31 119.48C116.36 119.62 116.42 119.76 116.51 119.88C116.59 120 116.69 120.1 116.81 120.19C116.92 120.28 117.05 120.36 117.19 120.41C117.35 120.49 117.51 120.56 117.68 120.63C117.85 120.69 118.01 120.75 118.19 120.79C118.36 120.84 118.53 120.88 118.71 120.91C118.88 120.94 119.06 120.96 119.24 120.97C119.8 120.97 120.08 121.18 120.08 121.46C120.08 121.74 119.78 121.89 119.18 121.89C118.94 121.89 118.32 121.89 117.32 121.81C116.02 121.74 115.08 121.7 114.49 121.7C114.21 121.7 113.94 121.7 113.66 121.71C113.39 121.71 113.11 121.72 112.83 121.74C112.56 121.75 112.28 121.77 112.01 121.79C111.73 121.81 111.45 121.83 111.18 121.86C111.13 121.87 111.07 121.87 111.02 121.88C110.96 121.88 110.91 121.89 110.85 121.89C110.8 121.9 110.74 121.9 110.69 121.9C110.63 121.91 110.58 121.91 110.52 121.91C109.97 121.91 109.7 121.75 109.7 121.43C109.7 121.11 109.88 121.04 110.23 120.97C110.41 120.94 110.59 120.9 110.77 120.86C110.94 120.82 111.12 120.77 111.29 120.71C111.47 120.65 111.64 120.59 111.81 120.52C111.98 120.45 112.15 120.38 112.31 120.3C112.47 120.2 112.62 120.1 112.77 119.99C112.92 119.87 113.06 119.75 113.2 119.63C113.33 119.5 113.46 119.37 113.58 119.23C113.71 119.09 113.82 118.94 113.93 118.79C114.13 118.51 114.33 118.22 114.52 117.93C114.7 117.63 114.89 117.34 115.06 117.03C115.24 116.73 115.4 116.43 115.56 116.12C115.72 115.81 115.87 115.5 116.02 115.18C117.86 111.45 120.59 106.42 124.2 100.1ZM118.81 112.76L126.61 112.68C126.2 111.85 125.57 110.71 124.72 109.26C123.79 107.69 123.1 106.49 122.64 105.65L118.81 112.76Z" />
	<path id="Layer" class="shp3" d="M167.28 121.87C163.6 121.73 157.87 121.66 150.1 121.66C147.39 121.66 145.19 121.72 143.5 121.83C143.08 121.83 142.78 121.83 142.59 121.83C142.03 121.83 141.75 121.67 141.75 121.35C141.75 121.32 141.75 121.28 141.76 121.25C141.77 121.22 141.79 121.19 141.81 121.16C141.83 121.13 141.85 121.11 141.88 121.09C141.91 121.07 141.94 121.05 141.97 121.04C142.06 121.02 142.15 120.99 142.24 120.97C142.33 120.95 142.42 120.94 142.51 120.92C142.6 120.91 142.69 120.89 142.78 120.88C142.88 120.87 142.97 120.87 143.06 120.86C143.24 120.85 143.42 120.83 143.6 120.8C143.78 120.77 143.96 120.73 144.14 120.68C144.31 120.63 144.48 120.57 144.65 120.51C144.82 120.44 144.99 120.36 145.15 120.28C145.27 120.2 145.38 120.12 145.48 120.02C145.59 119.93 145.68 119.83 145.77 119.71C145.85 119.6 145.93 119.48 145.99 119.36C146.06 119.23 146.11 119.1 146.15 118.97C146.22 118.61 146.28 118.24 146.33 117.87C146.38 117.5 146.42 117.13 146.45 116.76C146.47 116.39 146.49 116.02 146.5 115.65C146.51 115.28 146.5 114.91 146.49 114.54C146.49 112.17 146.51 109.35 146.54 106.08C146.55 105.84 146.55 105.6 146.54 105.36C146.53 105.12 146.51 104.88 146.48 104.64C146.44 104.4 146.4 104.17 146.34 103.93C146.29 103.7 146.22 103.47 146.14 103.24C146.08 103.11 146.01 102.98 145.93 102.86C145.86 102.74 145.77 102.63 145.67 102.53C145.57 102.42 145.47 102.32 145.36 102.24C145.24 102.15 145.13 102.07 145 102C144.84 101.92 144.67 101.86 144.5 101.8C144.33 101.74 144.16 101.69 143.99 101.66C143.81 101.62 143.63 101.59 143.46 101.57C143.28 101.56 143.1 101.55 142.92 101.55C142.28 101.55 141.97 101.35 141.97 101.04C141.97 100.73 142.33 100.56 143.05 100.56L150.38 100.72C151.51 100.72 153.09 100.72 155.13 100.59L156.63 100.59C157.25 100.59 157.56 100.74 157.56 101.05C157.56 101.09 157.55 101.13 157.54 101.17C157.52 101.21 157.5 101.25 157.47 101.28C157.45 101.31 157.41 101.34 157.38 101.36C157.34 101.39 157.3 101.4 157.26 101.41C157.14 101.44 157.01 101.46 156.89 101.49C156.77 101.51 156.64 101.53 156.52 101.55C156.4 101.57 156.27 101.59 156.15 101.6C156.02 101.62 155.9 101.63 155.77 101.64C155.59 101.64 155.41 101.66 155.23 101.68C155.05 101.71 154.87 101.74 154.69 101.79C154.52 101.83 154.35 101.89 154.18 101.96C154.01 102.02 153.84 102.1 153.68 102.18C153.57 102.26 153.47 102.36 153.37 102.46C153.28 102.56 153.2 102.67 153.13 102.79C153.06 102.91 153 103.04 152.96 103.17C152.91 103.3 152.88 103.43 152.86 103.57C152.81 103.94 152.77 104.3 152.74 104.67C152.71 105.04 152.68 105.41 152.67 105.78C152.65 106.14 152.64 106.51 152.64 106.88C152.63 107.25 152.64 107.62 152.65 107.99L152.65 117.66C152.65 119.14 152.85 120.03 153.21 120.31C153.36 120.39 153.52 120.47 153.68 120.53C153.84 120.59 154.01 120.64 154.18 120.67C154.35 120.71 154.52 120.73 154.69 120.74C154.86 120.75 155.04 120.75 155.21 120.73C155.66 120.74 156.11 120.74 156.56 120.73C157.01 120.72 157.47 120.7 157.92 120.66C158.37 120.63 158.81 120.58 159.26 120.53C159.71 120.47 160.16 120.4 160.6 120.32C160.9 120.25 161.2 120.17 161.49 120.07C161.78 119.97 162.07 119.86 162.35 119.74C162.63 119.61 162.91 119.48 163.18 119.33C163.45 119.18 163.71 119.02 163.97 118.85C164.3 118.6 164.63 118.34 164.94 118.07C165.25 117.8 165.55 117.51 165.84 117.21C166.12 116.91 166.4 116.6 166.66 116.28C166.92 115.96 167.17 115.62 167.4 115.28C167.44 115.21 167.49 115.14 167.54 115.09C167.59 115.03 167.66 114.98 167.72 114.93C167.79 114.89 167.86 114.85 167.94 114.82C168.01 114.8 168.09 114.78 168.17 114.77C168.57 114.77 168.76 114.92 168.76 115.23C168.68 115.79 168.59 116.35 168.49 116.91C168.38 117.47 168.27 118.02 168.15 118.58C168.02 119.13 167.89 119.68 167.75 120.23C167.6 120.78 167.45 121.33 167.28 121.87L167.28 121.87Z" />
	<path id="Layer" class="shp3" d="M195.54 121.87C191.86 121.73 186.13 121.66 178.36 121.66C175.66 121.66 173.45 121.72 171.76 121.83C171.35 121.83 171.05 121.83 170.86 121.83C170.3 121.83 170.02 121.67 170.02 121.35C170.02 121.32 170.02 121.28 170.03 121.25C170.04 121.22 170.06 121.19 170.08 121.16C170.1 121.13 170.12 121.11 170.15 121.09C170.18 121.07 170.21 121.05 170.24 121.04C170.33 121.02 170.42 120.99 170.51 120.97C170.6 120.95 170.69 120.94 170.78 120.92C170.87 120.91 170.96 120.89 171.05 120.88C171.14 120.87 171.23 120.87 171.32 120.86C171.5 120.85 171.68 120.83 171.86 120.8C172.04 120.77 172.22 120.73 172.4 120.68C172.58 120.63 172.75 120.57 172.92 120.51C173.09 120.44 173.26 120.36 173.42 120.28C173.54 120.21 173.65 120.12 173.75 120.02C173.86 119.93 173.95 119.83 174.04 119.71C174.12 119.6 174.2 119.48 174.26 119.36C174.33 119.23 174.38 119.1 174.42 118.97C174.49 118.61 174.55 118.24 174.6 117.87C174.65 117.5 174.69 117.14 174.72 116.77C174.75 116.4 174.77 116.02 174.78 115.65C174.79 115.28 174.78 114.91 174.77 114.54C174.77 112.17 174.77 109.35 174.77 106.08C174.78 105.84 174.79 105.6 174.78 105.36C174.77 105.12 174.74 104.88 174.71 104.64C174.68 104.4 174.63 104.17 174.58 103.93C174.52 103.7 174.45 103.47 174.37 103.24C174.32 103.11 174.25 102.99 174.18 102.87C174.11 102.75 174.03 102.64 173.93 102.53C173.84 102.43 173.74 102.33 173.64 102.24C173.53 102.15 173.42 102.07 173.3 102C173.14 101.92 172.97 101.86 172.8 101.8C172.63 101.74 172.46 101.69 172.28 101.66C172.1 101.62 171.93 101.59 171.75 101.57C171.57 101.56 171.39 101.55 171.21 101.55C170.58 101.55 170.26 101.35 170.26 101.04C170.26 100.73 170.62 100.56 171.34 100.56L178.67 100.72C179.81 100.72 181.39 100.72 183.42 100.59L184.92 100.59C185.54 100.59 185.85 100.74 185.85 101.05C185.85 101.09 185.84 101.13 185.83 101.17C185.81 101.21 185.79 101.25 185.76 101.28C185.74 101.31 185.7 101.34 185.67 101.36C185.63 101.39 185.59 101.4 185.55 101.41C185.43 101.44 185.3 101.47 185.18 101.49C185.06 101.51 184.93 101.53 184.81 101.55C184.69 101.57 184.56 101.59 184.44 101.6C184.31 101.62 184.19 101.63 184.06 101.64C183.88 101.64 183.7 101.66 183.52 101.69C183.34 101.71 183.16 101.75 182.98 101.79C182.81 101.84 182.64 101.89 182.47 101.96C182.3 102.02 182.13 102.1 181.97 102.18C181.86 102.26 181.76 102.36 181.67 102.46C181.58 102.56 181.5 102.68 181.43 102.79C181.36 102.91 181.3 103.04 181.26 103.17C181.21 103.3 181.18 103.43 181.16 103.57C181.12 103.94 181.08 104.31 181.05 104.67C181.03 105.04 181 105.41 180.99 105.78C180.98 106.15 180.97 106.52 180.97 106.89C180.97 107.26 180.98 107.63 181 108L181 117.67C181 119.15 181.2 120.04 181.55 120.32C181.7 120.4 181.86 120.48 182.02 120.54C182.18 120.6 182.35 120.65 182.52 120.68C182.69 120.72 182.86 120.74 183.03 120.75C183.2 120.76 183.38 120.76 183.55 120.74C184 120.75 184.45 120.75 184.9 120.74C185.35 120.73 185.81 120.71 186.26 120.67C186.71 120.64 187.15 120.59 187.6 120.54C188.05 120.48 188.5 120.41 188.94 120.33C189.24 120.26 189.54 120.18 189.83 120.08C190.12 119.98 190.41 119.87 190.69 119.75C190.97 119.63 191.25 119.49 191.52 119.34C191.79 119.19 192.05 119.03 192.31 118.86C192.64 118.61 192.97 118.35 193.28 118.08C193.59 117.81 193.89 117.52 194.18 117.22C194.47 116.92 194.74 116.61 195 116.29C195.26 115.97 195.51 115.63 195.74 115.29C195.78 115.22 195.83 115.15 195.88 115.1C195.93 115.04 196 114.99 196.06 114.94C196.13 114.9 196.2 114.86 196.28 114.83C196.35 114.81 196.43 114.79 196.51 114.78C196.91 114.78 197.11 114.93 197.11 115.24C197.02 115.8 196.92 116.36 196.81 116.92C196.7 117.48 196.58 118.03 196.45 118.58C196.32 119.14 196.18 119.69 196.03 120.24C195.88 120.78 195.71 121.33 195.54 121.87L195.54 121.87Z" />
	<path id="Layer" class="shp3" d="M200.07 100.63C200.59 100.63 201.65 100.66 203.25 100.72C204.47 100.72 205.44 100.79 206.17 100.79L212.94 100.66C213.52 100.66 213.81 100.8 213.81 101.09C213.81 101.38 213.55 101.49 213.03 101.54C212.83 101.54 212.63 101.55 212.43 101.57C212.24 101.59 212.04 101.62 211.84 101.66C211.65 101.7 211.45 101.75 211.26 101.8C211.07 101.86 210.88 101.93 210.7 102C210.58 102.1 210.47 102.21 210.37 102.32C210.27 102.44 210.18 102.57 210.1 102.7C210.02 102.84 209.96 102.98 209.91 103.13C209.86 103.27 209.82 103.43 209.8 103.58C209.73 104.04 209.67 104.51 209.62 104.97C209.57 105.44 209.53 105.91 209.5 106.38C209.48 106.85 209.46 107.31 209.46 107.78C209.45 108.25 209.46 108.72 209.48 109.19C209.48 112.54 209.55 115.12 209.7 116.95C209.85 118.78 210.14 119.9 210.59 120.33C210.75 120.45 210.92 120.56 211.09 120.65C211.27 120.74 211.46 120.81 211.65 120.87C211.84 120.92 212.04 120.96 212.23 120.98C212.43 121 212.63 121 212.83 120.98C213.56 120.98 213.92 121.11 213.92 121.39C213.92 121.67 213.53 121.95 212.75 121.95L211.75 121.95C208.99 121.81 207.1 121.74 206.08 121.74C203.86 121.74 202.22 121.79 201.16 121.89C200.6 121.93 200.2 121.95 199.96 121.95C199.42 121.95 199.15 121.8 199.15 121.49C199.15 121.18 199.37 121.1 199.83 121.06C200.05 121.06 200.28 121.04 200.5 121.01C200.72 120.98 200.94 120.93 201.15 120.86C201.36 120.8 201.57 120.72 201.78 120.63C201.98 120.53 202.17 120.42 202.36 120.3C202.79 119.92 203.05 118.99 203.14 117.51C203.14 117.51 203.19 115.22 203.28 110.65C203.29 110.1 203.29 109.55 203.29 109C203.29 108.45 203.27 107.9 203.25 107.36C203.23 106.81 203.2 106.26 203.16 105.71C203.13 105.16 203.08 104.62 203.03 104.07C203.03 103.89 203 103.7 202.97 103.52C202.93 103.34 202.88 103.17 202.81 103C202.74 102.83 202.66 102.66 202.56 102.51C202.46 102.35 202.35 102.21 202.23 102.07C202.06 101.99 201.89 101.92 201.71 101.86C201.54 101.8 201.36 101.75 201.18 101.71C201 101.67 200.81 101.64 200.63 101.62C200.44 101.6 200.26 101.6 200.07 101.6C199.51 101.6 199.23 101.4 199.23 101.1C199.23 100.8 199.53 100.63 200.07 100.63Z" />
	<path id="Layer" fill-rule="evenodd" class="shp3" d="M229.71 100.1L231.21 100.1C233.16 103.14 235.91 107.91 239.44 114.41C239.68 114.89 239.93 115.36 240.19 115.83C240.45 116.3 240.72 116.76 241 117.21C241.28 117.67 241.57 118.11 241.88 118.55C242.18 118.99 242.5 119.43 242.82 119.85C243.02 120.03 243.24 120.19 243.47 120.33C243.7 120.47 243.94 120.59 244.19 120.68C244.44 120.78 244.7 120.86 244.96 120.91C245.22 120.97 245.49 121 245.76 121.01C246.2 121.01 246.42 121.19 246.42 121.42C246.42 121.65 246.13 121.91 245.56 121.91C245.25 121.91 244.45 121.91 243.15 121.8C241.62 121.71 240.33 121.66 239.29 121.66C238.25 121.66 236.95 121.66 235.29 121.79C234.07 121.85 233.27 121.88 232.89 121.88C232.21 121.88 231.89 121.73 231.89 121.42C231.89 121.11 232.13 121.06 232.6 121.02C234.41 120.91 235.31 120.39 235.31 119.49C235.28 119.28 235.24 119.08 235.19 118.88C235.14 118.68 235.09 118.48 235.02 118.28C234.95 118.08 234.88 117.89 234.8 117.7C234.71 117.51 234.62 117.32 234.52 117.14C234.4 116.87 234.27 116.61 234.14 116.34C234.01 116.08 233.87 115.82 233.73 115.56C233.58 115.31 233.44 115.05 233.29 114.8C233.14 114.55 232.98 114.3 232.82 114.05L223.66 114.05C222.39 116.55 221.75 118.22 221.76 119.05C221.76 119.2 221.79 119.34 221.83 119.48C221.88 119.62 221.94 119.75 222.02 119.87C222.11 119.99 222.21 120.1 222.32 120.19C222.44 120.28 222.56 120.36 222.7 120.41C222.86 120.49 223.02 120.56 223.19 120.63C223.36 120.69 223.53 120.75 223.7 120.79C223.87 120.84 224.05 120.88 224.23 120.91C224.4 120.94 224.58 120.96 224.76 120.97C225.32 120.97 225.6 121.18 225.6 121.46C225.6 121.74 225.29 121.89 224.69 121.89L222.84 121.81C221.54 121.74 220.6 121.7 220.01 121.7C219.73 121.7 219.46 121.7 219.18 121.71C218.9 121.71 218.63 121.72 218.35 121.74C218.08 121.75 217.8 121.77 217.53 121.79C217.25 121.81 216.97 121.83 216.7 121.86C216.65 121.87 216.59 121.87 216.54 121.88C216.48 121.88 216.43 121.89 216.37 121.89C216.32 121.9 216.26 121.9 216.21 121.9C216.15 121.91 216.1 121.91 216.04 121.91C215.49 121.91 215.22 121.75 215.22 121.43C215.22 121.11 215.4 121.04 215.75 120.97C215.93 120.94 216.11 120.9 216.28 120.86C216.46 120.81 216.64 120.76 216.81 120.71C216.98 120.65 217.15 120.59 217.32 120.52C217.49 120.45 217.66 120.38 217.82 120.3C217.98 120.2 218.13 120.1 218.28 119.99C218.43 119.87 218.58 119.76 218.71 119.63C218.85 119.5 218.98 119.37 219.1 119.23C219.23 119.09 219.34 118.94 219.45 118.79C219.65 118.51 219.85 118.22 220.04 117.93C220.22 117.63 220.41 117.34 220.58 117.03C220.76 116.73 220.92 116.43 221.08 116.12C221.24 115.81 221.39 115.5 221.54 115.18C223.37 111.45 226.1 106.42 229.71 100.1ZM224.31 112.76L232.12 112.68C231.71 111.85 231.12 110.68 230.22 109.26C229.32 107.84 228.6 106.49 228.15 105.65L224.31 112.76Z" />
	<path id="Layer" class="shp3" d="M255.85 100.66C262.9 106.44 268.78 111.07 273.49 114.55C273.49 113.83 273.49 113.37 273.49 113.16L273.49 106.87C273.5 106.6 273.5 106.33 273.5 106.07C273.49 105.8 273.47 105.53 273.44 105.27C273.41 105 273.37 104.73 273.32 104.47C273.26 104.21 273.2 103.95 273.13 103.69C273.06 103.52 272.98 103.36 272.88 103.2C272.78 103.05 272.66 102.91 272.53 102.78C272.41 102.65 272.26 102.53 272.11 102.43C271.96 102.33 271.8 102.24 271.63 102.17C271.42 102.07 271.21 101.99 270.99 101.91C270.77 101.83 270.55 101.77 270.33 101.71C270.1 101.66 269.88 101.61 269.65 101.58C269.42 101.55 269.19 101.53 268.96 101.52C268.42 101.52 268.14 101.31 268.14 101.03C268.14 100.75 268.39 100.57 268.89 100.57C269.17 100.57 269.53 100.57 269.98 100.62C270.82 100.69 272.04 100.72 273.66 100.72C275.66 100.72 277.24 100.72 278.3 100.61C278.74 100.61 279.12 100.61 279.43 100.61C279.99 100.61 280.27 100.76 280.27 101.07C280.27 101.38 279.89 101.54 279.14 101.59C278.91 101.6 278.68 101.63 278.46 101.68C278.23 101.72 278.01 101.78 277.79 101.85C277.57 101.92 277.36 102 277.15 102.1C276.94 102.2 276.74 102.31 276.55 102.43C275.74 102.93 275.34 103.91 275.34 105.37L275.45 114.37L275.3 121.14C275.3 121.72 275.05 122.01 274.55 122.01C274.51 122.01 274.47 122.01 274.43 122C274.39 122 274.35 121.99 274.31 121.98C274.27 121.98 274.23 121.97 274.19 121.96C274.16 121.95 274.12 121.93 274.08 121.92C273.91 121.85 272.89 121.12 271.08 119.71C269.27 118.3 266.48 116.13 262.84 113.18C259.2 110.23 256.64 108.11 255.17 106.83C255.17 107.12 255.12 109.83 255.12 114.83C255.11 115.14 255.11 115.44 255.12 115.75C255.13 116.06 255.15 116.36 255.17 116.67C255.19 116.97 255.22 117.28 255.26 117.58C255.3 117.89 255.35 118.19 255.4 118.49C255.45 118.71 255.52 118.92 255.62 119.12C255.73 119.32 255.85 119.51 256 119.68C256.15 119.85 256.33 119.99 256.51 120.12C256.7 120.24 256.91 120.34 257.12 120.41C257.33 120.5 257.54 120.58 257.75 120.65C257.96 120.73 258.18 120.79 258.4 120.84C258.62 120.89 258.84 120.93 259.07 120.96C259.29 120.98 259.51 121 259.74 121.01C260.24 121.01 260.49 121.15 260.49 121.42C260.49 121.69 260.22 121.9 259.69 121.9C259.35 121.9 258.93 121.9 258.41 121.84C257.53 121.75 256.41 121.71 255.03 121.71C252.84 121.71 251.25 121.71 250.26 121.85C249.65 121.91 249.2 121.93 248.94 121.93C248.37 121.93 248.08 121.76 248.08 121.41C248.08 121.06 248.54 121 249.47 120.95C251.13 120.85 252.17 120.44 252.59 119.71C252.71 119.48 252.81 119.24 252.89 119C252.98 118.75 253.05 118.5 253.1 118.25C253.15 118 253.19 117.74 253.21 117.48C253.23 117.23 253.23 116.97 253.22 116.71C253.22 111.24 253.18 107.9 253.1 106.71C253.08 106.4 253.02 106.09 252.94 105.79C252.86 105.48 252.75 105.19 252.61 104.91C252.48 104.62 252.32 104.36 252.13 104.1C251.95 103.85 251.74 103.61 251.51 103.4C251.28 103.16 251.02 102.94 250.75 102.74C250.48 102.54 250.19 102.37 249.89 102.22C249.59 102.07 249.28 101.95 248.95 101.85C248.63 101.75 248.3 101.68 247.97 101.64C247.39 101.56 247.11 101.4 247.11 101.14C247.11 100.88 247.41 100.62 248.01 100.62L248.65 100.62C248.99 100.62 249.6 100.62 250.49 100.62C252.42 100.61 254.2 100.63 255.85 100.66Z" />
	<path id="Layer" class="shp3" d="M306.17 102.12C306.48 101.85 306.81 101.54 307.17 101.2C307.23 101.12 307.3 101.05 307.37 100.98C307.45 100.91 307.53 100.85 307.61 100.8C307.7 100.74 307.79 100.7 307.88 100.66C307.97 100.63 308.07 100.6 308.17 100.58C308.22 100.57 308.27 100.57 308.32 100.57C308.37 100.58 308.42 100.59 308.47 100.6C308.52 100.61 308.57 100.63 308.61 100.66C308.66 100.68 308.7 100.71 308.74 100.74C308.78 100.82 308.81 100.9 308.83 100.98C308.86 101.06 308.88 101.14 308.9 101.23C308.92 101.31 308.94 101.4 308.94 101.48C308.95 101.57 308.96 101.65 308.96 101.74L309.41 106.74L309.41 107.37C309.41 107.8 309.17 108.01 308.7 108.01C308.62 108.01 308.54 107.99 308.46 107.97C308.39 107.94 308.31 107.9 308.25 107.86C308.18 107.81 308.12 107.75 308.07 107.69C308.02 107.63 307.98 107.56 307.95 107.48C307.74 107.12 307.5 106.78 307.26 106.44C307.02 106.11 306.76 105.78 306.48 105.47C306.21 105.15 305.92 104.85 305.62 104.57C305.32 104.28 305.01 104 304.69 103.74C304.28 103.39 303.84 103.08 303.37 102.82C302.91 102.55 302.42 102.33 301.91 102.16C301.41 101.98 300.88 101.85 300.35 101.77C299.82 101.69 299.29 101.66 298.75 101.68C298.36 101.67 297.98 101.68 297.59 101.72C297.2 101.76 296.82 101.83 296.45 101.92C296.07 102.02 295.7 102.14 295.34 102.28C294.98 102.43 294.64 102.6 294.3 102.79C294 102.97 293.72 103.17 293.45 103.39C293.18 103.61 292.92 103.84 292.69 104.1C292.45 104.35 292.23 104.62 292.03 104.9C291.83 105.19 291.65 105.48 291.49 105.79C291.32 106.15 291.16 106.51 291.03 106.89C290.9 107.26 290.79 107.65 290.71 108.03C290.63 108.42 290.57 108.82 290.53 109.21C290.49 109.61 290.48 110 290.49 110.4C290.41 111.71 290.61 113.03 291.07 114.26C291.53 115.5 292.25 116.62 293.17 117.56C294.09 118.51 295.2 119.24 296.42 119.73C297.64 120.22 298.95 120.45 300.27 120.4C303.29 120.4 306.06 119.09 308.58 116.46C308.63 116.39 308.69 116.33 308.76 116.28C308.83 116.22 308.9 116.17 308.97 116.13C309.05 116.09 309.13 116.06 309.21 116.03C309.29 116.01 309.37 115.99 309.46 115.98C309.93 115.98 310.16 116.15 310.16 116.49C310.16 117.16 309 118.27 306.68 119.83C306.03 120.23 305.36 120.57 304.66 120.87C303.96 121.17 303.24 121.41 302.51 121.6C301.77 121.8 301.03 121.93 300.27 122.02C299.52 122.1 298.76 122.13 298 122.1C293.38 122.1 289.71 121.07 287 119.02C286.39 118.6 285.83 118.1 285.33 117.55C284.84 116.99 284.42 116.38 284.07 115.72C283.72 115.06 283.45 114.37 283.27 113.65C283.09 112.92 283 112.18 283 111.44C283.01 110.68 283.11 109.93 283.3 109.19C283.48 108.46 283.75 107.74 284.1 107.07C284.46 106.4 284.88 105.77 285.38 105.19C285.87 104.62 286.44 104.1 287.05 103.66C287.77 103.1 288.54 102.6 289.35 102.17C290.17 101.74 291.01 101.39 291.88 101.1C292.76 100.82 293.65 100.62 294.56 100.5C295.47 100.37 296.38 100.33 297.3 100.36C298.06 100.37 298.82 100.41 299.57 100.49C300.32 100.56 301.07 100.68 301.82 100.82C302.56 100.97 303.3 101.15 304.02 101.37C304.75 101.59 305.47 101.84 306.17 102.12Z" />
	<path id="Layer" class="shp3" d="M336.62 100.84C337.09 102.49 337.55 104.16 338.02 105.84C338.02 106.14 337.8 106.3 337.38 106.3C337.3 106.29 337.23 106.27 337.15 106.25C337.08 106.22 337.01 106.19 336.94 106.15C336.87 106.11 336.81 106.07 336.75 106.02C336.69 105.97 336.64 105.91 336.59 105.85C336.3 105.52 336 105.21 335.67 104.91C335.35 104.61 335.02 104.33 334.67 104.07C334.32 103.81 333.95 103.56 333.58 103.34C333.2 103.11 332.82 102.91 332.42 102.72C331.98 102.57 331.54 102.45 331.09 102.34C330.64 102.24 330.19 102.15 329.73 102.09C329.28 102.03 328.82 101.98 328.36 101.96C327.9 101.94 327.44 101.94 326.98 101.96C326.66 101.96 326.34 101.96 326.02 101.97C325.69 101.98 325.37 102 325.05 102.02C324.73 102.04 324.41 102.06 324.09 102.09C323.77 102.12 323.45 102.15 323.13 102.19C323.06 102.7 323 103.21 322.95 103.72C322.9 104.24 322.86 104.75 322.82 105.26C322.79 105.78 322.77 106.29 322.75 106.81C322.73 107.32 322.73 107.84 322.73 108.35C322.73 108.73 322.73 109.35 322.73 110.27L324.41 110.27C324.64 110.27 324.86 110.27 325.09 110.26C325.32 110.25 325.54 110.23 325.77 110.2C326 110.18 326.22 110.14 326.44 110.1C326.67 110.06 326.89 110.01 327.11 109.96C327.3 109.91 327.49 109.84 327.67 109.75C327.85 109.67 328.02 109.57 328.18 109.46C328.35 109.35 328.5 109.22 328.64 109.08C328.79 108.95 328.92 108.8 329.04 108.64C329.13 108.54 329.21 108.44 329.29 108.33C329.37 108.23 329.45 108.12 329.53 108.01C329.6 107.9 329.68 107.79 329.75 107.68C329.82 107.57 329.89 107.46 329.95 107.34C329.97 107.27 330 107.2 330.05 107.13C330.09 107.07 330.14 107.02 330.2 106.97C330.26 106.92 330.33 106.89 330.41 106.86C330.48 106.84 330.55 106.83 330.63 106.83C331.05 106.83 331.25 106.96 331.25 107.21C331.25 107.23 331.26 107.25 331.26 107.27C331.26 107.3 331.26 107.32 331.26 107.34C331.26 107.36 331.26 107.38 331.26 107.41C331.26 107.43 331.25 107.45 331.25 107.47C331.19 107.96 331.13 108.45 331.09 108.94C331.04 109.43 331.01 109.92 330.99 110.41C330.97 110.91 330.95 111.4 330.95 111.89C330.95 112.38 330.96 112.88 330.98 113.37C330.98 113.47 330.98 113.58 330.99 113.68C331 113.79 331.01 113.89 331.02 114C331.04 114.1 331.05 114.2 331.07 114.31C331.1 114.41 331.12 114.51 331.15 114.61C331.15 114.63 331.16 114.65 331.16 114.68C331.16 114.7 331.16 114.72 331.16 114.75C331.16 114.77 331.16 114.79 331.16 114.81C331.16 114.84 331.15 114.86 331.15 114.88C331.15 115.17 330.92 115.32 330.45 115.32C329.98 115.32 329.87 115.04 329.7 114.48C329.62 114.23 329.52 113.99 329.39 113.77C329.27 113.54 329.12 113.33 328.94 113.14C328.77 112.94 328.58 112.77 328.37 112.62C328.16 112.46 327.94 112.33 327.7 112.23C327.3 112.08 326.9 111.95 326.49 111.84C326.08 111.72 325.66 111.64 325.24 111.57C324.82 111.5 324.4 111.46 323.97 111.43C323.55 111.41 323.12 111.41 322.7 111.43C322.63 113.21 322.59 114.38 322.59 114.94C322.58 115.3 322.57 115.66 322.57 116.02C322.57 116.38 322.58 116.74 322.59 117.1C322.61 117.46 322.62 117.82 322.65 118.17C322.67 118.53 322.7 118.89 322.74 119.25C322.78 119.38 322.84 119.5 322.92 119.62C322.99 119.73 323.07 119.84 323.17 119.94C323.27 120.03 323.38 120.11 323.5 120.18C323.61 120.25 323.74 120.31 323.87 120.35C324.13 120.43 324.4 120.51 324.67 120.57C324.95 120.63 325.22 120.68 325.5 120.71C325.77 120.75 326.05 120.77 326.33 120.78C326.6 120.79 326.88 120.79 327.16 120.77C332.77 120.77 336.46 119.49 338.23 116.93C338.27 116.85 338.32 116.78 338.37 116.72C338.43 116.66 338.49 116.6 338.56 116.55C338.64 116.51 338.71 116.47 338.79 116.44C338.87 116.41 338.96 116.4 339.04 116.39C339.47 116.39 339.68 116.51 339.68 116.77C339.68 116.83 339.67 116.88 339.67 116.94C339.66 116.99 339.65 117.05 339.64 117.1C339.63 117.15 339.62 117.21 339.6 117.26C339.59 117.32 339.57 117.37 339.55 117.42L338.19 122L330.19 122C327.94 122 325.83 121.95 323.88 121.88C321.93 121.81 320.41 121.79 319.3 121.79C318.19 121.79 316.2 121.84 313.72 121.95L313.03 121.95C312.34 121.95 312.03 121.79 312.03 121.46C312.03 121.13 312.31 121.01 312.87 121.01C313.12 121.04 313.38 121.05 313.64 121.03C313.89 121.01 314.15 120.96 314.39 120.89C314.64 120.82 314.88 120.72 315.11 120.6C315.34 120.48 315.55 120.34 315.75 120.18C316.25 119.62 316.49 118.49 316.49 116.77L316.63 108.59C316.64 108.16 316.64 107.73 316.64 107.3C316.64 106.87 316.64 106.44 316.62 106.01C316.61 105.58 316.59 105.15 316.57 104.73C316.54 104.3 316.51 103.87 316.48 103.44C316.47 103.31 316.45 103.18 316.41 103.05C316.38 102.93 316.32 102.81 316.26 102.69C316.19 102.58 316.11 102.47 316.02 102.38C315.93 102.28 315.83 102.2 315.72 102.13C315.54 102.05 315.35 101.99 315.16 101.93C314.97 101.87 314.78 101.82 314.58 101.77C314.39 101.73 314.19 101.7 313.99 101.67C313.8 101.65 313.6 101.63 313.4 101.62C312.93 101.62 312.7 101.43 312.7 101.17C312.7 100.91 312.97 100.7 313.51 100.7L318.83 100.81L336.62 100.84Z" />
	<path id="Layer" class="shp3" d="M73.46 71.2L73.41 71.2C66.41 72.93 57.62 72.49 49.12 71.33C41.51 70.33 34.47 68.51 28.87 65.01L20.82 96.43L51.14 73.55L82 94.9L73.63 71.15L73.46 71.2Z" />
	<path id="Layer" class="shp3" d="M52.24 41.62C55.32 38.88 60.53 32.92 60.53 32.92L50.21 0.84L38.69 37.68L0.69 37.6L25.86 55.25C25.86 55.25 41.89 50.81 52.24 41.62Z" />
	<path id="Blue_part_of_star" class="shp2" d="M64.2 55.93C46.5 59.42 35.85 59.49 35.85 59.49C35.85 59.49 57.58 57.49 75.38 51.49C76.35 51.19 77.31 50.87 78.26 50.54C79.22 50.21 80.17 49.87 81.12 49.51C82.06 49.15 83 48.77 83.94 48.39C84.87 48 85.8 47.6 86.72 47.18C86.81 47.18 88.12 46.66 88.17 46.63L100.33 37.69L65.14 37.69L61.19 37.69C60.62 38.22 60.05 38.75 59.47 39.27C58.89 39.78 58.3 40.29 57.7 40.79C57.11 41.29 56.5 41.79 55.89 42.27C55.28 42.75 54.66 43.22 54.04 43.69C52.25 45.09 50.41 46.42 48.53 47.69C46.64 48.96 44.72 50.16 42.75 51.3C40.78 52.43 38.77 53.5 36.73 54.5C34.69 55.49 32.62 56.42 30.51 57.27L30.56 62.9C32.12 63.73 33.71 64.48 35.34 65.15C36.97 65.83 38.63 66.43 40.31 66.94C42 67.46 43.7 67.9 45.43 68.26C47.16 68.62 48.9 68.9 50.65 69.09C52.47 69.35 54.3 69.54 56.13 69.68C57.97 69.81 59.81 69.89 61.65 69.9C63.48 69.91 65.32 69.86 67.16 69.74C68.99 69.63 70.83 69.46 72.65 69.22L71.18 59.13L82.06 51.13C80.6 51.62 79.13 52.1 77.65 52.54C76.18 52.99 74.7 53.41 73.21 53.82C71.72 54.22 70.22 54.59 68.72 54.94C67.22 55.3 65.71 55.63 64.2 55.93L64.2 55.93Z" />
</svg>